<svg width="195" height="142" viewBox="0 0 195 142" fill="none" xmlns="http://www.w3.org/2000/svg">
<g clip-path="url(#clip0)">
<path d="M118.603 67.1968C117.998 67.1959 117.416 66.9661 116.975 66.5538C116.534 66.1416 116.266 65.5778 116.227 64.9766L115.873 59.594C115.832 58.9653 116.043 58.346 116.46 57.8723C116.877 57.3986 117.466 57.1094 118.097 57.0682L160.441 54.3065C161.788 54.2196 163.115 54.6691 164.13 55.5562C165.144 56.4432 165.764 57.6953 165.852 59.0371C165.94 60.3789 165.49 61.7007 164.6 62.712C163.71 63.7233 162.454 64.3413 161.106 64.4301L118.763 67.1917C118.71 67.195 118.656 67.1968 118.603 67.1968Z" fill="#6C63FF"/>
<path d="M126.953 67.8909C126.336 67.8899 125.744 67.6512 125.3 67.2249C124.855 66.7986 124.594 66.2177 124.57 65.6039L124.269 57.5644C124.257 57.2526 124.307 56.9417 124.416 56.6492C124.525 56.3567 124.691 56.0885 124.904 55.8598C125.117 55.6312 125.373 55.4465 125.658 55.3165C125.943 55.1865 126.25 55.1136 126.563 55.1019L161.383 53.8059C162.016 53.7824 162.631 54.0099 163.095 54.4385C163.559 54.867 163.832 55.4615 163.856 56.0911L164.158 64.1306C164.17 64.4424 164.119 64.7533 164.01 65.0458C163.902 65.3383 163.736 65.6065 163.523 65.8352C163.31 66.0638 163.053 66.2484 162.769 66.3785C162.484 66.5085 162.176 66.5814 161.863 66.593L127.043 67.8891C127.013 67.8904 126.983 67.8909 126.953 67.8909Z" fill="#2F2E41"/>
<path d="M167.757 142H162.34C161.708 141.999 161.101 141.749 160.654 141.303C160.207 140.858 159.956 140.254 159.955 139.624V94.667C159.956 94.0372 160.207 93.4334 160.654 92.9881C161.101 92.5427 161.708 92.2922 162.34 92.2915H167.757C168.389 92.2922 168.995 92.5427 169.442 92.9881C169.89 93.4334 170.141 94.0372 170.142 94.667V139.624C170.141 140.254 169.89 140.858 169.442 141.303C168.995 141.749 168.389 141.999 167.757 142Z" fill="#2F2E41"/>
<path d="M154.158 142H148.741C148.109 141.999 147.502 141.749 147.055 141.303C146.608 140.858 146.357 140.254 146.356 139.624V94.667C146.357 94.0372 146.608 93.4334 147.055 92.9881C147.502 92.5427 148.109 92.2922 148.741 92.2915H154.158C154.79 92.2922 155.396 92.5427 155.843 92.9881C156.291 93.4334 156.542 94.0372 156.543 94.667V139.624C156.542 140.254 156.291 140.858 155.843 141.303C155.396 141.749 154.79 141.999 154.158 142Z" fill="#2F2E41"/>
<path d="M159.53 45.3737C169.866 45.3737 178.246 37.0288 178.246 26.7349C178.246 16.441 169.866 8.09619 159.53 8.09619C149.194 8.09619 140.815 16.441 140.815 26.7349C140.815 37.0288 149.194 45.3737 159.53 45.3737Z" fill="#6C63FF"/>
<path d="M149.4 33.0986C148.798 32.9016 148.245 32.5785 147.779 32.151C147.47 31.8458 147.232 31.4771 147.081 31.0706C146.931 30.6641 146.871 30.2297 146.906 29.7978C146.926 29.4901 147.017 29.1911 147.172 28.9241C147.327 28.6571 147.541 28.4294 147.799 28.2588C148.468 27.8312 149.364 27.83 150.275 28.23L150.24 20.9537L150.974 20.9502L151.015 29.5043L150.449 29.15C149.794 28.7399 148.857 28.4512 148.195 28.8741C148.032 28.9858 147.896 29.1336 147.8 29.3059C147.703 29.4782 147.647 29.6705 147.637 29.8677C147.612 30.1894 147.658 30.5127 147.769 30.8154C147.881 31.1182 148.058 31.3934 148.286 31.6223C149.096 32.3933 150.279 32.6344 151.627 32.8498L151.511 33.5715C150.794 33.4769 150.088 33.3187 149.4 33.0986Z" fill="#2F2E41"/>
<path d="M142.675 20.587L142.579 21.3115L146.498 21.827L146.594 21.1024L142.675 20.587Z" fill="#2F2E41"/>
<path d="M155.044 22.2125L154.948 22.937L158.867 23.4524L158.963 22.7279L155.044 22.2125Z" fill="#2F2E41"/>
<path d="M143.598 106.729H143.598C142.771 106.728 141.979 106.401 141.394 105.818C140.809 105.236 140.48 104.446 140.479 103.623C140.479 103.623 145.452 76.7519 148.294 61.0027C148.846 57.9402 150.462 55.1685 152.858 53.1723C155.255 51.176 158.279 50.0821 161.404 50.082H161.404C165.879 50.082 170.17 51.8525 173.335 55.0038C176.499 58.1552 178.277 62.4294 178.277 66.8861V72.1927C178.277 81.3524 174.623 90.1369 168.12 96.6137C161.616 103.091 152.796 106.729 143.598 106.729Z" fill="#2F2E41"/>
<path d="M167.211 104.039C167.019 104.456 166.71 104.809 166.321 105.055C165.933 105.301 165.481 105.43 165.021 105.427L159.605 105.38C159.291 105.377 158.982 105.313 158.693 105.191C158.405 105.07 158.144 104.892 157.924 104.67C157.705 104.447 157.531 104.184 157.414 103.895C157.297 103.605 157.238 103.296 157.24 102.984L157.608 60.7252C157.614 60.0589 157.751 59.4001 158.012 58.7866C158.273 58.1731 158.653 57.6168 159.13 57.1496C159.607 56.6824 160.172 56.3133 160.792 56.0636C161.413 55.8138 162.076 55.6883 162.745 55.694C163.415 55.6998 164.076 55.8368 164.692 56.0972C165.308 56.3577 165.866 56.7364 166.335 57.2118C166.804 57.6872 167.174 58.2499 167.424 58.8679C167.675 59.4858 167.801 60.1468 167.794 60.8132L167.427 103.072C167.424 103.406 167.351 103.736 167.211 104.039Z" fill="#6C63FF"/>
<path d="M169.603 92.7581C169.412 93.175 169.103 93.5277 168.714 93.7739C168.326 94.0201 167.874 94.1492 167.413 94.1457L158.162 94.0658C157.53 94.0596 156.926 93.8039 156.483 93.3547C156.04 92.9055 155.793 92.2995 155.798 91.6698L156.1 56.9692C156.103 56.6573 156.167 56.3489 156.29 56.0617C156.412 55.7745 156.59 55.5142 156.813 55.2955C157.037 55.0768 157.301 54.9041 157.592 54.7872C157.882 54.6704 158.193 54.6116 158.506 54.6143L167.757 54.6942C168.07 54.6969 168.38 54.761 168.668 54.8829C168.956 55.0047 169.218 55.182 169.437 55.4045C169.657 55.627 169.83 55.8904 169.948 56.1796C170.065 56.4689 170.124 56.7783 170.121 57.0902L169.819 91.7909C169.817 92.1248 169.743 92.4545 169.603 92.7581Z" fill="#2F2E41"/>
<path d="M154.128 15.7517C151.212 16.2447 147.955 16.8084 145.176 15.4615C142.989 14.4014 141.485 12.284 142.018 9.7961C143.078 4.84493 148.77 2.65596 153.344 3.09771C156.034 3.34782 158.563 4.48367 160.532 6.32569C160.626 6.41384 160.743 6.47315 160.869 6.49647C160.996 6.51979 161.126 6.50612 161.245 6.45709C161.364 6.40807 161.466 6.3258 161.539 6.22025C161.612 6.11469 161.652 5.99036 161.656 5.86231C161.636 4.03531 163.009 2.51075 164.635 1.82254C166.671 0.960873 169.037 1.26879 171.13 1.7299C176.855 3.00161 182.055 5.98214 186.036 10.2737C190.016 14.5653 192.588 19.9639 193.407 25.7489C193.99 29.8215 193.678 33.9716 192.491 37.912C191.381 41.5443 189.331 45.1952 185.955 47.1714C182.913 48.9522 178.49 49.4107 175.683 46.9123C173.435 44.9111 172.421 41.1699 174.266 38.5808C174.809 37.83 175.547 37.2397 176.4 36.8724C177.253 36.5051 178.19 36.3745 179.111 36.4945C179.983 36.6317 180.797 37.0151 181.456 37.599C182.115 38.183 182.593 38.9431 182.831 39.7892C183.006 40.6015 182.952 41.4463 182.675 42.23C182.398 43.0137 181.909 43.7058 181.261 44.2297C180.777 44.5761 180.227 44.8207 179.645 44.9486C179.063 45.0765 178.461 45.0851 177.876 44.9738C177.29 44.8625 176.734 44.6336 176.24 44.3012C175.746 43.9687 175.325 43.5396 175.003 43.04C174.556 42.3257 173.417 42.9829 173.867 43.7015C174.383 44.5058 175.091 45.171 175.927 45.638C176.763 46.105 177.702 46.3596 178.66 46.3791C179.615 46.3964 180.558 46.1606 181.392 45.6957C182.225 45.2308 182.92 44.5535 183.404 43.7333C183.923 42.8963 184.212 41.9378 184.241 40.9543C184.271 39.9709 184.039 38.9971 183.57 38.131C183.058 37.2477 182.328 36.5091 181.449 35.9849C180.57 35.4608 179.572 35.1685 178.548 35.1356C177.486 35.1273 176.437 35.3764 175.494 35.8613C174.55 36.3463 173.738 37.0526 173.13 37.9194C172.145 39.4191 171.781 41.2406 172.116 43.0014C172.412 44.7922 173.283 46.4394 174.597 47.6969C176.118 49.0684 178.077 49.8616 180.127 49.937C184.59 50.1904 188.573 47.6303 191.034 44.0716C193.588 40.3789 194.73 35.7452 194.96 31.3151C195.195 26.7998 194.403 22.29 192.645 18.1214C190.888 13.9528 188.208 10.2327 184.807 7.23807C181.572 4.41822 177.778 2.30704 173.671 1.04144C169.605 -0.198804 163.929 -1.10285 161.184 3.03402C160.625 3.87173 160.331 4.85677 160.34 5.86234L161.463 5.39895C157.491 1.61874 151.247 0.663536 146.287 2.9872C143.796 4.15429 141.636 6.32451 140.861 9.00036C140.058 11.7768 141.22 14.5018 143.603 16.0764C146.845 18.2194 150.867 17.626 154.478 17.0156C155.311 16.8748 154.958 15.6115 154.128 15.7518V15.7517Z" fill="#2F2E41"/>
<path d="M112.975 96.3135H6.40863C4.70955 96.3116 3.08061 95.6385 1.87918 94.442C0.677751 93.2455 0.00193848 91.6232 0 89.9311V26.4718C0.00193848 24.7796 0.677751 23.1574 1.87918 21.9608C3.08061 20.7643 4.70955 20.0913 6.40863 20.0894H112.975C114.674 20.0913 116.303 20.7643 117.504 21.9608C118.706 23.1574 119.382 24.7796 119.384 26.4718V89.9311C119.382 91.6232 118.706 93.2455 117.504 94.442C116.303 95.6385 114.674 96.3116 112.975 96.3135ZM6.40863 21.1835C5.00082 21.1851 3.65114 21.7428 2.65567 22.7342C1.6602 23.7256 1.10024 25.0697 1.09862 26.4718V89.9311C1.10024 91.3331 1.6602 92.6773 2.65567 93.6687C3.65114 94.6601 5.00082 95.2178 6.40863 95.2194H112.975C114.383 95.2178 115.732 94.6601 116.728 93.6687C117.723 92.6773 118.283 91.3331 118.285 89.9311V26.4718C118.283 25.0697 117.723 23.7256 116.728 22.7342C115.732 21.7428 114.383 21.1851 112.975 21.1835H6.40863Z" fill="#3F3D56"/>
<path d="M20.6907 35.0425C19.7854 35.0425 18.9003 34.7751 18.1475 34.2742C17.3948 33.7733 16.808 33.0613 16.4616 32.2283C16.1151 31.3952 16.0245 30.4786 16.2011 29.5943C16.3777 28.7099 16.8137 27.8976 17.4539 27.2601C18.0941 26.6225 18.9097 26.1883 19.7977 26.0124C20.6856 25.8365 21.606 25.9268 22.4425 26.2718C23.2789 26.6169 23.9939 27.2012 24.4969 27.9509C24.9998 28.7006 25.2683 29.582 25.2683 30.4837C25.267 31.6923 24.7842 32.8511 23.9261 33.7058C23.0679 34.5604 21.9044 35.0412 20.6907 35.0425ZM20.6907 27.0189C20.0026 27.0189 19.33 27.2221 18.7579 27.6028C18.1858 27.9836 17.7399 28.5247 17.4766 29.1578C17.2133 29.7909 17.1444 30.4875 17.2786 31.1596C17.4128 31.8317 17.7442 32.4491 18.2307 32.9336C18.7173 33.4182 19.3372 33.7481 20.012 33.8818C20.6869 34.0155 21.3864 33.9469 22.0221 33.6847C22.6578 33.4224 23.2011 32.9783 23.5834 32.4086C23.9657 31.8388 24.1697 31.1689 24.1697 30.4837C24.1686 29.5651 23.8018 28.6844 23.1496 28.0349C22.4974 27.3853 21.6131 27.02 20.6907 27.0189Z" fill="#3F3D56"/>
<path d="M97.9605 35.0425C97.0551 35.0425 96.1701 34.7751 95.4173 34.2742C94.6645 33.7733 94.0778 33.0613 93.7313 32.2283C93.3849 31.3952 93.2942 30.4786 93.4708 29.5943C93.6475 28.7099 94.0834 27.8976 94.7236 27.2601C95.3638 26.6225 96.1794 26.1883 97.0674 26.0124C97.9554 25.8365 98.8758 25.9268 99.7122 26.2718C100.549 26.6169 101.264 27.2012 101.767 27.9509C102.27 28.7006 102.538 29.582 102.538 30.4837C102.537 31.6923 102.054 32.8511 101.196 33.7058C100.338 34.5604 99.1741 35.0412 97.9605 35.0425ZM97.9605 27.0189C97.2724 27.0189 96.5998 27.2221 96.0277 27.6028C95.4556 27.9836 95.0096 28.5247 94.7463 29.1578C94.483 29.7909 94.4141 30.4875 94.5484 31.1596C94.6826 31.8317 95.0139 32.4491 95.5005 32.9336C95.987 33.4182 96.6069 33.7481 97.2817 33.8818C97.9566 34.0155 98.6561 33.9469 99.2918 33.6847C99.9275 33.4224 100.471 32.9783 100.853 32.4086C101.235 31.8388 101.439 31.1689 101.439 30.4837C101.438 29.5651 101.072 28.6844 100.419 28.0349C99.7671 27.3853 98.8828 27.02 97.9605 27.0189Z" fill="#3F3D56"/>
<path d="M31.4938 62.7604H11.7186C10.8934 62.7594 10.1022 62.4325 9.51866 61.8513C8.93512 61.2702 8.60685 60.4822 8.60587 59.6604V47.9897C8.60685 47.1678 8.93512 46.3799 9.51866 45.7987C10.1022 45.2175 10.8934 44.8906 11.7186 44.8896H31.4938C32.3191 44.8906 33.1103 45.2175 33.6938 45.7987C34.2773 46.3799 34.6056 47.1678 34.6066 47.9897V59.6604C34.6056 60.4822 34.2773 61.2702 33.6938 61.8513C33.1103 62.4325 32.3191 62.7594 31.4938 62.7604Z" fill="#E6E6E6"/>
<path d="M69.5794 62.7604H49.8042C48.9789 62.7594 48.1878 62.4325 47.6042 61.8513C47.0207 61.2702 46.6924 60.4822 46.6914 59.6604V47.9897C46.6924 47.1678 47.0207 46.3799 47.6042 45.7987C48.1878 45.2175 48.9789 44.8906 49.8042 44.8896H69.5794C70.4047 44.8906 71.1958 45.2175 71.7794 45.7987C72.3629 46.3799 72.6912 47.1678 72.6922 47.9897V59.6604C72.6912 60.4822 72.3629 61.2702 71.7794 61.8513C71.1958 62.4325 70.4047 62.7594 69.5794 62.7604Z" fill="#E6E6E6"/>
<path d="M87.8898 45.2544C87.1616 45.2552 86.4634 45.5436 85.9485 46.0564C85.4336 46.5692 85.144 47.2645 85.1432 47.9897V59.6604C85.144 60.3856 85.4336 61.0809 85.9485 61.5937C86.4634 62.1065 87.1616 62.3949 87.8898 62.3957H107.665C108.393 62.3949 109.091 62.1065 109.606 61.5937C110.121 61.0809 110.411 60.3856 110.412 59.6604V47.9897C110.411 47.2645 110.121 46.5692 109.606 46.0564C109.091 45.5436 108.393 45.2552 107.665 45.2544H87.8898Z" fill="#E6E6E6"/>
<path d="M31.6769 86.1017H11.9017C11.0765 86.1007 10.2853 85.7738 9.70177 85.1926C9.11823 84.6115 8.78996 83.8236 8.78898 83.0017V71.331C8.78996 70.5091 9.11823 69.7212 9.70177 69.14C10.2853 68.5589 11.0765 68.2319 11.9017 68.231H31.6769C32.5022 68.2319 33.2934 68.5589 33.8769 69.14C34.4605 69.7212 34.7887 70.5091 34.7897 71.331V83.0017C34.7887 83.8236 34.4605 84.6115 33.8769 85.1926C33.2934 85.7738 32.5022 86.1007 31.6769 86.1017Z" fill="#E6E6E6"/>
<path d="M69.7625 86.1017H49.9873C49.162 86.1007 48.3709 85.7738 47.7873 85.1926C47.2038 84.6115 46.8755 83.8236 46.8745 83.0017V71.331C46.8755 70.5091 47.2038 69.7212 47.7873 69.14C48.3709 68.5589 49.162 68.2319 49.9873 68.231H69.7625C70.5877 68.2319 71.3789 68.5589 71.9625 69.14C72.546 69.7212 72.8743 70.5091 72.8753 71.331V83.0017C72.8743 83.8236 72.546 84.6115 71.9625 85.1926C71.3789 85.7738 70.5877 86.1007 69.7625 86.1017Z" fill="#E6E6E6"/>
<path d="M107.848 86.1017H88.0729C87.2476 86.1007 86.4564 85.7738 85.8729 85.1926C85.2894 84.6115 84.9611 83.8236 84.9601 83.0017V71.331C84.9611 70.5091 85.2894 69.7212 85.8729 69.14C86.4564 68.5589 87.2476 68.2319 88.0729 68.231H107.848C108.673 68.2319 109.464 68.5589 110.048 69.14C110.632 69.7212 110.96 70.5091 110.961 71.331V83.0017C110.96 83.8236 110.632 84.6115 110.048 85.1926C109.464 85.7738 108.673 86.1007 107.848 86.1017Z" fill="#E6E6E6"/>
<path d="M20.6907 31.7601C20.3509 31.7597 20.0251 31.6251 19.7849 31.3858C19.5446 31.1465 19.4094 30.822 19.409 30.4836V12.2482C19.409 11.9096 19.544 11.5849 19.7844 11.3455C20.0248 11.1062 20.3508 10.9717 20.6907 10.9717C21.0307 10.9717 21.3567 11.1062 21.597 11.3455C21.8374 11.5849 21.9724 11.9096 21.9724 12.2482V30.4836C21.972 30.822 21.8369 31.1465 21.5966 31.3858C21.3563 31.6251 21.0305 31.7597 20.6907 31.7601Z" fill="#3F3D56"/>
<path d="M97.9605 31.7601C97.6207 31.7597 97.2949 31.6251 97.0546 31.3858C96.8143 31.1465 96.6792 30.822 96.6787 30.4836V12.2482C96.6787 11.9096 96.8138 11.5849 97.0542 11.3455C97.2945 11.1062 97.6205 10.9717 97.9605 10.9717C98.3004 10.9717 98.6264 11.1062 98.8668 11.3455C99.1071 11.5849 99.2422 11.9096 99.2422 12.2482V30.4836C99.2418 30.822 99.1066 31.1465 98.8663 31.3858C98.6261 31.6251 98.3003 31.7597 97.9605 31.7601Z" fill="#3F3D56"/>
<path d="M20.8587 58.5557C20.3195 58.5566 19.7946 58.3829 19.3633 58.0607L19.3365 58.0408L13.704 53.7497C13.1772 53.3474 12.8323 52.7532 12.7454 52.0978C12.6585 51.4424 12.8366 50.7794 13.2405 50.2547C13.6444 49.73 14.241 49.3866 14.8991 49.3C15.5573 49.2134 16.223 49.3908 16.7498 49.793L20.3981 52.5793L29.0192 41.3781C29.2191 41.1184 29.4684 40.9004 29.7529 40.7367C30.0374 40.573 30.3515 40.4667 30.6772 40.4238C31.0029 40.381 31.334 40.4024 31.6514 40.487C31.9688 40.5715 32.2664 40.7175 32.5271 40.9166L32.5278 40.9172L32.4744 40.9911L32.5293 40.9172C33.0554 41.3198 33.3996 41.9139 33.4863 42.569C33.5731 43.2241 33.3954 43.8867 32.9921 44.4114L22.8518 57.5806C22.6172 57.884 22.3156 58.1296 21.9703 58.2981C21.625 58.4667 21.2454 58.5539 20.8609 58.5527L20.8587 58.5557Z" fill="#6C63FF"/>
<path d="M60.0429 81.5323C59.5037 81.5332 58.9788 81.3594 58.5475 81.0373L58.5207 81.0173L52.8882 76.7262C52.3613 76.324 52.0165 75.7298 51.9296 75.0744C51.8427 74.4189 52.0207 73.7559 52.4246 73.2312C52.8285 72.7066 53.4252 72.3631 54.0833 72.2766C54.7414 72.19 55.4072 72.3673 55.934 72.7696L59.5823 75.5558L68.2034 64.3546C68.4033 64.0949 68.6526 63.877 68.9371 63.7133C69.2216 63.5495 69.5357 63.4432 69.8614 63.4004C70.1871 63.3575 70.5182 63.379 70.8356 63.4635C71.153 63.5481 71.4505 63.6941 71.7113 63.8932L71.712 63.8937L71.6585 63.9677L71.7135 63.8937C72.2396 64.2964 72.5838 64.8904 72.6705 65.5455C72.7573 66.2006 72.5795 66.8633 72.1763 67.388L62.036 80.5572C61.8014 80.8606 61.4997 81.1061 61.1545 81.2747C60.8092 81.4433 60.4296 81.5304 60.0451 81.5293L60.0429 81.5323Z" fill="#6C63FF"/>
<path d="M97.0298 58.5557C96.4906 58.5566 95.9658 58.3829 95.5344 58.0607L95.5076 58.0408L89.8751 53.7497C89.3483 53.3474 89.0035 52.7532 88.9165 52.0978C88.8296 51.4424 89.0077 50.7794 89.4116 50.2547C89.8155 49.73 90.4121 49.3866 91.0703 49.3C91.7284 49.2134 92.3941 49.3908 92.9209 49.793L96.5693 52.5793L105.19 41.3781C105.39 41.1184 105.64 40.9004 105.924 40.7367C106.209 40.573 106.523 40.4667 106.848 40.4238C107.174 40.381 107.505 40.4024 107.823 40.487C108.14 40.5715 108.437 40.7175 108.698 40.9166L108.699 40.9172L108.645 40.9911L108.7 40.9172C109.227 41.3198 109.571 41.9139 109.657 42.569C109.744 43.2241 109.566 43.8867 109.163 44.4114L99.0229 57.5806C98.7883 57.884 98.4867 58.1296 98.1414 58.2981C97.7961 58.4667 97.4165 58.5539 97.032 58.5527L97.0298 58.5557Z" fill="#6C63FF"/>
</g>
<defs>
<clipPath id="clip0">
<rect width="195" height="142" fill="white"/>
</clipPath>
</defs>
</svg>
