<svg width="190" height="170" viewBox="0 0 190 170" fill="none" xmlns="http://www.w3.org/2000/svg">
<path d="M97.3051 0.370834L91.1229 1.96022L14.9561 21.5418L8.77386 23.1311C5.77306 23.9062 3.20319 25.8363 1.62804 28.4979C0.0528976 31.1596 -0.398883 34.3355 0.371817 37.3288L27.1795 140.964C27.9569 143.955 29.893 146.517 32.5628 148.087C35.2327 149.658 38.4183 150.108 41.4208 149.34L41.4368 149.336L129.936 126.584L129.952 126.579C132.953 125.804 135.523 123.874 137.098 121.213C138.673 118.551 139.125 115.375 138.354 112.382L111.547 8.74712C110.769 5.75553 108.833 3.19354 106.163 1.62323C103.493 0.0529096 100.308 -0.397493 97.3051 0.370834Z" fill="#F2F2F2"/>
<path d="M98.1457 3.61982L90.8232 5.50233L16.9367 24.4977L9.61431 26.3802C7.47737 26.9321 5.64729 28.3065 4.52559 30.202C3.40388 32.0974 3.08216 34.359 3.63099 36.4906L30.4387 140.125C30.9923 142.256 32.371 144.08 34.2723 145.198C36.1735 146.317 38.4421 146.637 40.5803 146.09L40.5962 146.086L129.096 123.334L129.112 123.33C131.249 122.778 133.079 121.404 134.2 119.508C135.322 117.613 135.644 115.351 135.095 113.22L108.287 9.58477C107.734 7.45441 106.355 5.62997 104.454 4.51171C102.552 3.39345 100.284 3.0727 98.1457 3.61982Z" fill="white"/>
<path d="M92.6167 37.1796L47.847 48.6893C47.3469 48.8179 46.8162 48.7432 46.3714 48.4816C45.9267 48.22 45.6044 47.793 45.4754 47.2945C45.3465 46.796 45.4214 46.2668 45.6838 45.8234C45.9462 45.38 46.3745 45.0587 46.8746 44.9302L91.6443 33.4204C92.1441 33.2924 92.6745 33.3675 93.1189 33.6291C93.5633 33.8907 93.8853 34.3175 94.0142 34.8157C94.143 35.314 94.0682 35.8428 93.8062 36.286C93.5441 36.7293 93.1163 37.0507 92.6167 37.1796Z" fill="#F2F2F2"/>
<path d="M102.035 41.5238L49.4879 55.0329C48.9878 55.1615 48.4571 55.0867 48.0123 54.8252C47.5676 54.5636 47.2453 54.1366 47.1163 53.6381C46.9874 53.1396 47.0623 52.6104 47.3247 52.167C47.5871 51.7236 48.0154 51.4023 48.5155 51.2738L101.062 37.7646C101.562 37.6361 102.093 37.7108 102.538 37.9724C102.983 38.234 103.305 38.661 103.434 39.1595C103.563 39.658 103.488 40.1871 103.225 40.6305C102.963 41.0739 102.535 41.3952 102.035 41.5238Z" fill="#F2F2F2"/>
<path d="M99.9704 65.6083L55.2007 77.118C54.9531 77.1816 54.6954 77.1961 54.4422 77.1604C54.189 77.1248 53.9454 77.0397 53.7251 76.9102C53.5049 76.7807 53.3125 76.6092 53.1587 76.4055C53.005 76.2018 52.893 75.9699 52.8291 75.7231C52.7653 75.4763 52.7508 75.2193 52.7866 74.9669C52.8224 74.7145 52.9076 74.4716 53.0376 74.2521C53.1675 74.0325 53.3395 73.8407 53.5438 73.6874C53.7481 73.5341 53.9807 73.4225 54.2283 73.3588L98.998 61.8491C99.2456 61.7854 99.5033 61.771 99.7565 61.8067C100.01 61.8423 100.253 61.9273 100.474 62.0569C100.694 62.1864 100.886 62.3579 101.04 62.5616C101.194 62.7653 101.306 62.9971 101.37 63.244C101.433 63.4908 101.448 63.7477 101.412 64.0001C101.376 64.2525 101.291 64.4955 101.161 64.715C101.031 64.9345 100.859 65.1264 100.655 65.2797C100.451 65.433 100.218 65.5446 99.9704 65.6083Z" fill="#F2F2F2"/>
<path d="M109.388 69.9525L56.8416 83.4617C56.594 83.5253 56.3363 83.5397 56.0831 83.5041C55.8299 83.4684 55.5863 83.3834 55.3661 83.2539C55.1459 83.1243 54.9534 82.9528 54.7996 82.7492C54.6459 82.5455 54.5339 82.3136 54.4701 82.0668C54.4062 81.82 54.3918 81.563 54.4275 81.3106C54.4633 81.0582 54.5486 80.8153 54.6785 80.5957C54.8084 80.3762 54.9804 80.1843 55.1847 80.0311C55.3891 79.8778 55.6216 79.7661 55.8692 79.7025L108.416 66.1933C108.916 66.0648 109.447 66.1395 109.892 66.4011C110.336 66.6627 110.659 67.0897 110.788 67.5882C110.917 68.0867 110.842 68.6159 110.579 69.0592C110.317 69.5026 109.889 69.8239 109.388 69.9525Z" fill="#F2F2F2"/>
<path d="M107.324 94.0365L62.5545 105.546C62.0546 105.674 61.5241 105.599 61.0796 105.338C60.6352 105.076 60.3131 104.649 60.1842 104.151C60.0553 103.653 60.1302 103.124 60.3923 102.681C60.6544 102.237 61.0824 101.916 61.5821 101.787L106.352 90.2773C106.852 90.1488 107.383 90.2235 107.827 90.4851C108.272 90.7467 108.594 91.1737 108.723 91.6722C108.852 92.1707 108.777 92.6998 108.515 93.1432C108.253 93.5866 107.824 93.9079 107.324 94.0365Z" fill="#F2F2F2"/>
<path d="M116.742 98.3812L64.1954 111.89C63.9477 111.954 63.6899 111.969 63.4365 111.933C63.1832 111.898 62.9393 111.813 62.7189 111.683C62.4985 111.554 62.3059 111.382 62.152 111.179C61.9981 110.975 61.8861 110.743 61.8222 110.496C61.7583 110.249 61.7439 109.992 61.7797 109.739C61.8155 109.487 61.9009 109.244 62.031 109.024C62.1611 108.805 62.3334 108.613 62.5379 108.459C62.7424 108.306 62.9752 108.195 63.223 108.131L115.77 94.622C116.27 94.4935 116.801 94.5682 117.245 94.8298C117.69 95.0914 118.012 95.5184 118.141 96.0169C118.27 96.5154 118.195 97.0446 117.933 97.488C117.671 97.9313 117.242 98.2527 116.742 98.3812Z" fill="#F2F2F2"/>
<path d="M40.2041 60.4911L24.3606 64.5642C24.1208 64.6256 23.8664 64.5896 23.6532 64.4643C23.4401 64.3389 23.2855 64.1343 23.2234 63.8954L19.5865 49.8357C19.525 49.5967 19.561 49.3431 19.6868 49.1306C19.8126 48.9181 20.0178 48.764 20.2574 48.7021L36.101 44.6289C36.3407 44.5675 36.5951 44.6035 36.8083 44.7289C37.0215 44.8543 37.1761 45.0588 37.2381 45.2977L40.875 59.3574C40.9366 59.5964 40.9005 59.85 40.7747 60.0625C40.6489 60.2751 40.4437 60.4292 40.2041 60.4911Z" fill="#E6E6E6"/>
<path d="M47.5579 88.9193L31.7143 92.9925C31.4746 93.0538 31.2202 93.0179 31.007 92.8925C30.7938 92.7671 30.6392 92.5625 30.5771 92.3236L26.9403 78.264C26.8787 78.0249 26.9148 77.7714 27.0406 77.5588C27.1664 77.3463 27.3716 77.1922 27.6112 77.1303L43.4547 73.0571C43.6945 72.9957 43.9489 73.0317 44.162 73.1571C44.3752 73.2825 44.5298 73.4871 44.5919 73.7259L48.2288 87.7856C48.2903 88.0246 48.2542 88.2782 48.1285 88.4907C48.0027 88.7033 47.7975 88.8574 47.5579 88.9193Z" fill="#E6E6E6"/>
<path d="M54.9116 117.348L39.0681 121.421C38.8283 121.483 38.574 121.447 38.3608 121.321C38.1476 121.196 37.993 120.991 37.9309 120.752L34.294 106.693C34.2325 106.454 34.2686 106.2 34.3943 105.988C34.5201 105.775 34.7253 105.621 34.9649 105.559L50.8085 101.486C51.0483 101.424 51.3026 101.46 51.5158 101.586C51.729 101.711 51.8836 101.916 51.9457 102.155L55.5825 116.214C55.6441 116.453 55.608 116.707 55.4822 116.919C55.3565 117.132 55.1513 117.286 54.9116 117.348Z" fill="#E6E6E6"/>
<path d="M159.051 26.6406H67.6236C64.5237 26.6441 61.5518 27.8733 59.3599 30.0585C57.1679 32.2437 55.935 35.2065 55.9315 38.2968V145.322C55.935 148.412 57.1679 151.375 59.3599 153.56C61.5518 155.746 64.5237 156.975 67.6236 156.978H159.051C162.151 156.975 165.123 155.746 167.315 153.56C169.507 151.375 170.74 148.412 170.743 145.322V38.2968C170.74 35.2065 169.507 32.2437 167.315 30.0585C165.123 27.8733 162.151 26.6441 159.051 26.6406Z" fill="#E6E6E6"/>
<path d="M159.051 29.9966H67.6236C65.4161 29.999 63.2997 30.8744 61.7388 32.4305C60.1779 33.9866 59.2998 36.0965 59.2974 38.2972V145.322C59.2998 147.523 60.1779 149.633 61.7388 151.189C63.2997 152.745 65.4161 153.621 67.6236 153.623H159.051C161.259 153.621 163.375 152.745 164.936 151.189C166.497 149.633 167.375 147.523 167.378 145.322V38.2972C167.375 36.0965 166.497 33.9867 164.936 32.4305C163.375 30.8744 161.259 29.9991 159.051 29.9966Z" fill="white"/>
<path d="M168.656 170C180.444 170 190 160.473 190 148.722C190 136.97 180.444 127.444 168.656 127.444C156.869 127.444 147.313 136.97 147.313 148.722C147.313 160.473 156.869 170 168.656 170Z" fill="#6C63FF"/>
<path d="M178.864 145.947H171.44V138.546C171.44 137.81 171.147 137.104 170.625 136.583C170.103 136.063 169.395 135.771 168.656 135.771C167.918 135.771 167.21 136.063 166.688 136.583C166.166 137.104 165.873 137.81 165.873 138.546V145.947H158.449C157.71 145.947 157.002 146.239 156.48 146.76C155.958 147.28 155.665 147.986 155.665 148.722C155.665 149.458 155.958 150.164 156.48 150.685C157.002 151.205 157.71 151.498 158.449 151.498H165.873V158.899C165.873 159.635 166.166 160.341 166.688 160.861C167.21 161.382 167.918 161.674 168.656 161.674C169.395 161.674 170.103 161.382 170.625 160.861C171.147 160.341 171.44 159.635 171.44 158.899V151.498H178.864C179.603 151.498 180.311 151.205 180.833 150.685C181.355 150.164 181.648 149.458 181.648 148.722C181.648 147.986 181.355 147.28 180.833 146.76C180.311 146.239 179.603 145.947 178.864 145.947Z" fill="white"/>
<path d="M145.291 88.8064H99.0571C98.8012 88.8067 98.5478 88.7567 98.3113 88.6593C98.0748 88.5619 97.8599 88.419 97.6789 88.2387C97.4979 88.0584 97.3543 87.8443 97.2563 87.6087C97.1583 87.3731 97.1078 87.1205 97.1078 86.8654C97.1078 86.6103 97.1583 86.3577 97.2563 86.1221C97.3543 85.8864 97.4979 85.6723 97.6789 85.4921C97.8599 85.3118 98.0748 85.1689 98.3113 85.0714C98.5478 84.974 98.8012 84.924 99.0571 84.9243H145.291C145.807 84.9249 146.302 85.1296 146.667 85.4936C147.031 85.8576 147.236 86.351 147.236 86.8654C147.236 87.3798 147.031 87.8732 146.667 88.2372C146.302 88.6011 145.807 88.8059 145.291 88.8064Z" fill="#E6E6E6"/>
<path d="M153.323 95.3572H99.0571C98.8012 95.3575 98.5478 95.3075 98.3113 95.2101C98.0748 95.1127 97.8599 94.9697 97.6789 94.7895C97.4979 94.6092 97.3543 94.3951 97.2563 94.1595C97.1583 93.9238 97.1078 93.6712 97.1078 93.4162C97.1078 93.1611 97.1583 92.9085 97.2563 92.6728C97.3543 92.4372 97.4979 92.2231 97.6789 92.0429C97.8599 91.8626 98.0748 91.7196 98.3113 91.6222C98.5478 91.5248 98.8012 91.4748 99.0571 91.4751H153.323C153.839 91.4751 154.335 91.6796 154.7 92.0436C155.065 92.4076 155.27 92.9014 155.27 93.4162C155.27 93.931 155.065 94.4247 154.7 94.7887C154.335 95.1527 153.839 95.3572 153.323 95.3572Z" fill="#E6E6E6"/>
<path d="M145.291 118.165H99.0571C98.8012 118.166 98.5478 118.116 98.3113 118.018C98.0748 117.921 97.8599 117.778 97.6789 117.598C97.4979 117.417 97.3543 117.203 97.2563 116.968C97.1583 116.732 97.1078 116.479 97.1078 116.224C97.1078 115.969 97.1583 115.717 97.2563 115.481C97.3543 115.245 97.4979 115.031 97.6789 114.851C97.8599 114.671 98.0748 114.528 98.3113 114.43C98.5478 114.333 98.8012 114.283 99.0571 114.283H145.291C145.808 114.283 146.303 114.488 146.668 114.852C147.033 115.216 147.238 115.709 147.238 116.224C147.238 116.739 147.033 117.233 146.668 117.597C146.303 117.961 145.808 118.165 145.291 118.165Z" fill="#E6E6E6"/>
<path d="M153.323 124.716H99.0571C98.8012 124.716 98.5478 124.666 98.3113 124.569C98.0748 124.472 97.8599 124.329 97.6789 124.148C97.4979 123.968 97.3543 123.754 97.2563 123.518C97.1583 123.283 97.1078 123.03 97.1078 122.775C97.1078 122.52 97.1583 122.267 97.2563 122.032C97.3543 121.796 97.4979 121.582 97.6789 121.402C97.8599 121.221 98.0748 121.079 98.3113 120.981C98.5478 120.884 98.8012 120.834 99.0571 120.834H153.323C153.579 120.834 153.832 120.884 154.069 120.981C154.305 121.079 154.52 121.221 154.701 121.402C154.882 121.582 155.026 121.796 155.124 122.032C155.222 122.267 155.272 122.52 155.272 122.775C155.272 123.03 155.222 123.283 155.124 123.518C155.026 123.754 154.882 123.968 154.701 124.148C154.52 124.329 154.305 124.472 154.069 124.569C153.832 124.666 153.579 124.716 153.323 124.716Z" fill="#E6E6E6"/>
<path d="M88.7003 98.3313H72.3384C72.0909 98.331 71.8536 98.2329 71.6785 98.0584C71.5035 97.8839 71.4051 97.6473 71.4048 97.4006V82.8809C71.4051 82.6342 71.5035 82.3976 71.6785 82.2231C71.8536 82.0486 72.0909 81.9505 72.3384 81.9502H88.7003C88.9478 81.9505 89.1851 82.0486 89.3602 82.2231C89.5352 82.3976 89.6336 82.6342 89.6339 82.8809V97.4006C89.6336 97.6473 89.5352 97.8839 89.3602 98.0584C89.1851 98.2329 88.9478 98.331 88.7003 98.3313Z" fill="#E6E6E6"/>
<path d="M88.7003 127.69H72.3384C72.0909 127.69 71.8536 127.592 71.6785 127.417C71.5035 127.243 71.4051 127.006 71.4048 126.759V112.24C71.4051 111.993 71.5035 111.756 71.6785 111.582C71.8536 111.408 72.0909 111.309 72.3384 111.309H88.7003C88.9478 111.309 89.1851 111.408 89.3602 111.582C89.5352 111.756 89.6336 111.993 89.6339 112.24V126.759C89.6336 127.006 89.5352 127.243 89.3602 127.417C89.1851 127.592 88.9478 127.69 88.7003 127.69Z" fill="#E6E6E6"/>
<path d="M145.343 56.1243H111.256C110.74 56.1243 110.244 55.9198 109.879 55.5558C109.514 55.1918 109.309 54.6981 109.309 54.1833C109.309 53.6684 109.514 53.1747 109.879 52.8107C110.244 52.4467 110.74 52.2422 111.256 52.2422H145.343C145.859 52.2422 146.354 52.4467 146.719 52.8107C147.085 53.1747 147.29 53.6684 147.29 54.1833C147.29 54.6981 147.085 55.1918 146.719 55.5558C146.354 55.9198 145.859 56.1243 145.343 56.1243Z" fill="#CCCCCC"/>
<path d="M153.374 62.6756H111.256C111 62.6756 110.747 62.6254 110.511 62.5278C110.275 62.4303 110.06 62.2873 109.879 62.1071C109.698 61.9268 109.555 61.7128 109.457 61.4773C109.359 61.2418 109.309 60.9894 109.309 60.7345C109.309 60.4796 109.359 60.2272 109.457 59.9917C109.555 59.7562 109.698 59.5422 109.879 59.362C110.06 59.1817 110.275 59.0388 110.511 58.9412C110.747 58.8437 111 58.7935 111.256 58.7935H153.374C153.891 58.7935 154.386 58.998 154.751 59.362C155.116 59.726 155.321 60.2197 155.321 60.7345C155.321 61.2493 155.116 61.743 154.751 62.1071C154.386 62.4711 153.891 62.6756 153.374 62.6756Z" fill="#CCCCCC"/>
<path d="M103.712 70.6148H72.2871C72.0396 70.6145 71.8023 70.5164 71.6272 70.3419C71.4522 70.1674 71.3538 69.9308 71.3535 69.6841V45.234C71.3538 44.9872 71.4522 44.7506 71.6272 44.5761C71.8023 44.4016 72.0396 44.3035 72.2871 44.3032H103.712C103.96 44.3035 104.197 44.4016 104.372 44.5761C104.547 44.7506 104.645 44.9872 104.646 45.234V69.6841C104.645 69.9308 104.547 70.1674 104.372 70.3419C104.197 70.5164 103.96 70.6145 103.712 70.6148Z" fill="#6C63FF"/>
</svg>
