<svg width="195" height="126" viewBox="0 0 195 126" fill="none" xmlns="http://www.w3.org/2000/svg">
<g clip-path="url(#clip0)">
<path d="M195 124.576H0V126H195V124.576Z" fill="#85848B"/>
<path d="M154.491 99.4292C154.491 100.525 148.101 103.718 140.512 103.718C132.922 103.718 127.009 100.525 127.009 99.4292C127.009 98.3337 133.16 98.6865 140.757 98.6865C148.354 98.6865 154.491 98.3319 154.491 99.4292Z" fill="#504F60"/>
<path opacity="0.2" d="M154.491 99.4292C154.491 100.525 148.101 103.718 140.512 103.718C132.922 103.718 127.009 100.525 127.009 99.4292" fill="black"/>
<path d="M78.059 79.3277C79.2908 79.4855 80.569 79.5858 81.7488 79.2033C81.9346 79.1457 82.1389 79.0176 82.1204 78.8319C82.1071 78.7645 82.0785 78.7009 82.0368 78.6463C81.5921 77.9797 81.2184 77.2684 80.922 76.524C80.9103 76.4851 80.8861 76.4512 80.8533 76.4274C80.8149 76.4135 80.7728 76.4135 80.7344 76.4274C80.19 76.5704 79.72 76.9213 79.1793 77.0717C78.9037 77.1473 78.616 77.1687 78.3321 77.1349C78.0869 77.107 77.7525 76.9046 77.5295 76.9306C77.6559 77.742 77.9643 78.4996 78.059 79.3277Z" fill="#6C63FF"/>
<path d="M101.355 77.2722C102.167 76.7152 103.009 76.1303 103.488 75.2706C103.522 75.2192 103.542 75.1596 103.546 75.0979C103.537 75.0373 103.514 74.9797 103.477 74.9308C103.02 74.2054 102.432 73.5713 101.743 73.061C101.384 73.3148 101.059 73.6144 100.777 73.9523C100.573 74.1677 100.008 74.5093 100.003 74.838C100.003 75.0237 100.218 75.2391 100.318 75.395C100.454 75.5956 100.582 75.7998 100.705 76.0078C100.775 76.1099 101.42 77.2314 101.355 77.2722Z" fill="#6C63FF"/>
<path d="M82.8878 81.8139C82.9023 82.0052 82.8497 82.1956 82.7391 82.3524C82.6524 82.4396 82.545 82.5035 82.427 82.5381C80.7047 83.1545 78.7112 82.3858 76.9927 82.993C76.6397 83.1174 76.3053 83.2975 75.9504 83.4164C75.5274 83.5435 75.0909 83.6207 74.6499 83.6466C74.0424 83.7042 73.4311 83.7413 72.8217 83.758C72.3587 83.7908 71.8934 83.75 71.4432 83.6373C71.218 83.5797 71.0075 83.4754 70.8254 83.3311C70.6432 83.1868 70.4935 83.0058 70.386 82.7999C70.2926 82.6153 70.274 82.4018 70.334 82.2039C70.361 82.136 70.3993 82.0732 70.4473 82.0182C70.5638 81.8876 70.7006 81.7766 70.8524 81.6895L71.4859 81.281C71.783 81.0711 72.1058 80.9001 72.4464 80.7723C72.6972 80.6906 72.9629 80.6553 73.2175 80.5866C74.1074 80.3267 74.7874 79.6211 75.4191 78.9434L76.2811 78.0242C76.3617 77.9231 76.4639 77.8413 76.5802 77.7847C76.6998 77.7449 76.8269 77.7328 76.9518 77.7494C77.7892 77.8092 78.5978 78.08 79.302 78.5367C79.482 78.6717 79.6764 78.7862 79.8817 78.8784C80.387 79.0752 81.0354 78.9266 81.5018 78.6778C81.7229 78.559 81.6746 78.4922 81.7675 78.2805C81.8604 78.0688 82.087 77.9333 82.2839 78.1264C82.3434 78.1931 82.3855 78.2735 82.4066 78.3603C82.5924 78.9731 82.5218 79.6322 82.5218 80.2747C82.5163 80.3751 82.5289 80.4757 82.5589 80.5717C82.6063 80.6686 82.6629 80.7606 82.728 80.8466C82.7412 80.8693 82.753 80.8929 82.7633 80.9171C82.8769 81.2016 82.9196 81.5093 82.8878 81.8139Z" fill="#514E7F"/>
<path d="M82.8878 81.814C82.9023 82.0053 82.8497 82.1957 82.7391 82.3525C82.6524 82.4397 82.545 82.5035 82.427 82.5382C80.7047 83.1546 78.7112 82.3859 76.9927 82.9931C76.6397 83.1175 76.3053 83.2976 75.9504 83.4164C75.5274 83.5435 75.0909 83.6208 74.6499 83.6467C74.0424 83.7042 73.4311 83.7414 72.8217 83.7581C72.3587 83.7908 71.8934 83.7501 71.4432 83.6374C71.218 83.5798 71.0075 83.4755 70.8254 83.3312C70.6432 83.1869 70.4935 83.0059 70.386 82.8C70.2926 82.6154 70.274 82.4019 70.334 82.2039C70.361 82.1361 70.3993 82.0733 70.4473 82.0183C70.5477 82.2281 70.6201 82.5066 70.6833 82.6069C70.7686 82.7555 70.8847 82.8842 71.0237 82.9844C71.1628 83.0846 71.3216 83.154 71.4896 83.188C71.7411 83.2035 71.9932 83.1713 72.2328 83.0933C73.7934 82.7071 75.4525 82.7016 76.9518 82.1167C77.4664 81.9143 77.9569 81.6451 78.4976 81.5225C79.0382 81.4 79.6123 81.4334 80.1697 81.387C81.0503 81.3164 81.9031 81.0509 82.7707 80.9116C82.8827 81.1984 82.9229 81.5082 82.8878 81.814Z" fill="#464353"/>
<path d="M105.299 77.1591C105.218 77.8127 104.803 78.3753 104.348 78.8525C103.893 79.3297 103.378 79.7586 103.016 80.3082C102.57 80.9896 102.369 81.8345 101.79 82.4101C101.567 82.6194 101.317 82.7974 101.047 82.9393C100.744 83.118 100.423 83.2655 100.09 83.3793C99.2241 83.656 98.2914 83.5929 97.3866 83.526C97.0929 83.5232 96.8021 83.4672 96.5283 83.3608C96.4037 83.2975 96.2844 83.2242 96.1716 83.1417C95.9448 83.0021 95.7539 82.8113 95.6142 82.5846C95.5456 82.4614 95.5264 82.3167 95.5603 82.1798C95.612 82.0291 95.7008 81.8937 95.8186 81.7862C96.0222 81.5746 96.2407 81.3779 96.4725 81.1976C96.7906 80.9925 97.0772 80.7423 97.3235 80.4549C97.4745 80.2278 97.5857 79.9766 97.6523 79.7122C97.7839 79.2489 97.8643 78.7725 97.892 78.2917C97.891 77.9722 97.924 77.6536 97.9904 77.341C98.1279 76.8509 98.4921 76.4127 98.4512 75.9058C98.4347 75.8332 98.4412 75.7572 98.4698 75.6885C98.513 75.6348 98.5733 75.5975 98.6407 75.5827C98.9246 75.4696 99.224 75.4001 99.5288 75.3766C99.6816 75.366 99.8349 75.3895 99.9776 75.4454C100.12 75.5013 100.249 75.5881 100.354 75.6996C100.48 75.8519 100.564 76.071 100.749 76.1304C100.841 76.1555 100.938 76.1593 101.032 76.1416C101.489 76.0951 101.972 76.0376 102.332 75.7424C102.499 75.593 102.633 75.4108 102.726 75.2073C102.818 75.0037 102.868 74.7832 102.871 74.5596C102.871 74.3906 102.795 74.2142 103.057 74.1882C103.254 74.1622 103.41 74.3739 103.51 74.5039C103.873 74.9885 104.244 75.4954 104.38 76.0859C104.432 76.0654 104.488 76.0547 104.545 76.0543C104.661 76.0533 104.775 76.0803 104.879 76.133C104.982 76.1857 105.071 76.2625 105.138 76.357C105.286 76.5965 105.343 76.881 105.299 77.1591Z" fill="#514E7F"/>
<path d="M105.299 77.159C105.218 77.8126 104.803 78.3752 104.348 78.8524C103.893 79.3296 103.378 79.7585 103.016 80.3082C102.57 80.9896 102.37 81.8344 101.79 82.41C101.567 82.6194 101.317 82.7974 101.047 82.9392C100.744 83.118 100.423 83.2654 100.09 83.3793C99.2241 83.656 98.2915 83.5928 97.3867 83.526C97.0929 83.5232 96.8021 83.4672 96.5283 83.3607C96.4037 83.2974 96.2844 83.2242 96.1716 83.1416C95.9448 83.002 95.7539 82.8113 95.6143 82.5846C95.7884 82.5009 95.9784 82.4553 96.1716 82.4509C96.5729 82.4732 96.8665 82.852 97.2511 82.9689C97.7991 83.1342 98.3454 82.748 98.9009 82.6161C99.2631 82.5307 99.644 82.553 100.003 82.4305C100.301 82.3151 100.578 82.1479 100.818 81.9366C101.148 81.7008 101.442 81.4181 101.69 81.0973C101.895 80.7765 102.067 80.4348 102.2 80.0779C102.494 79.394 102.839 78.7335 103.233 78.1023C103.292 78.0023 103.362 77.91 103.443 77.8275C103.531 77.7476 103.629 77.6919 103.728 77.6214C104.099 77.341 104.253 76.8787 104.383 76.4256C104.419 76.2879 104.468 76.1541 104.53 76.0264C104.646 76.0254 104.761 76.0524 104.864 76.1051C104.967 76.1578 105.056 76.2346 105.123 76.3291C105.283 76.5742 105.346 76.8701 105.299 77.159Z" fill="#464353"/>
<path d="M66.3414 19.2678C66.8038 19.6141 67.1844 20.0579 67.4561 20.5676C67.7162 21.0763 69.2155 25.0239 69.1282 25.5976C69.6168 25.1056 71.5435 25.0257 72.0376 24.5337C72.2439 24.3276 73.3567 23.2989 73.524 23.0594C73.6912 22.8199 74.9322 22.3167 75.0679 22.0641C75.5751 21.1562 71.471 17.7155 71.9968 16.8187C72.0259 16.7775 72.0408 16.728 72.0395 16.6776C72.0275 16.6353 72.0037 16.5973 71.9708 16.568C71.6345 16.2245 71.1886 16.011 70.7836 15.7566C70.3786 15.5022 69.9884 15.1476 69.8788 14.6797C69.4925 14.8574 69.138 15.097 68.8291 15.389C68.076 16.0339 67.336 16.6918 66.6089 17.3628C66.3246 17.6264 65.7747 17.9773 65.6428 18.3543C65.4867 18.7591 66.0701 19.0469 66.3414 19.2678Z" fill="#A1616A"/>
<path d="M72.9852 17.8066C72.3555 18.2295 71.7671 18.7107 71.2276 19.2438C70.7186 19.747 70.2355 20.33 70.1129 21.0337C70.0609 21.3104 70.0683 21.5908 70.0256 21.8712C69.8398 23.0874 68.7882 23.9786 68.3238 25.1168C68.1892 25.4681 68.0903 25.832 68.0284 26.203C67.8979 26.9064 67.8264 27.6194 67.8147 28.3346C67.8036 29.0272 68.4836 29.5044 68.7325 30.1506C68.9815 30.7967 69.0483 31.4615 69.1747 32.1244C69.4125 33.3758 69.8491 34.5827 70.2894 35.7822C71.2054 38.3112 74.1743 45.302 75.0902 47.8328C77.8975 47.1291 85.3699 45.5118 87.8557 44.0282C88.6844 43.5343 82.1056 37.9621 82.9918 37.5777C83.0424 37.5699 83.0906 37.5503 83.1324 37.5207C83.1742 37.491 83.2085 37.452 83.2327 37.4068C83.2568 37.3616 83.2701 37.3114 83.2715 37.2602C83.2729 37.209 83.2624 37.1582 83.2407 37.1117C82.3545 33.2384 79.5826 30.0559 78.3248 26.2847C77.8882 24.9757 77.1041 23.8579 76.5096 22.6139C75.9708 21.4868 75.6829 20.2409 75.0382 19.1695C74.9166 18.9488 74.7576 18.7509 74.5681 18.5846C74.4073 18.4614 74.2335 18.3562 74.0498 18.2708C73.6819 18.0926 73.3401 17.9867 72.9852 17.8066Z" fill="#514E7F"/>
<path d="M66.49 18.828C68.9167 18.828 70.8839 16.862 70.8839 14.4367C70.8839 12.0115 68.9167 10.0454 66.49 10.0454C64.0633 10.0454 62.0961 12.0115 62.0961 14.4367C62.0961 16.862 64.0633 18.828 66.49 18.828Z" fill="#A1616A"/>
<path d="M70.9601 16.4995C71.1791 16.2976 71.4541 16.1668 71.749 16.1244C72.0439 16.082 72.3447 16.1299 72.6117 16.2618C72.909 16.4159 73.1691 16.7278 73.1022 17.0546L75.2815 17.0881C75.6284 17.0786 75.9752 17.1104 76.3145 17.1828C76.656 17.2571 76.9609 17.4482 77.1766 17.7231C77.2026 17.7584 77.2323 17.8011 77.2769 17.8066C77.3132 17.8072 77.3485 17.7954 77.3772 17.7732C77.7125 17.6052 78.0901 17.5406 78.4622 17.5875C79.6401 17.6637 80.7289 18.2523 81.6522 18.9876C81.8187 19.102 81.9479 19.2627 82.0238 19.4499C82.1 19.6969 82.0089 20.0069 82.2096 20.1833C82.2096 22.2258 82.9119 24.1346 83.3801 26.1251C83.4637 26.4797 83.8037 26.7935 84.0396 27.072C84.3311 27.3808 84.5691 27.736 84.7437 28.123C85.1413 29.1553 84.5933 30.3697 84.9797 31.4058C85.1432 31.844 85.459 32.2042 85.7228 32.5848C86.0706 33.0244 86.2905 33.5512 86.3583 34.1074C86.375 34.3562 86.3434 34.6069 86.3583 34.8501C86.3832 35.1847 86.4455 35.5154 86.544 35.8361C86.7026 36.4352 86.8686 37.0337 87.042 37.6316C87.3244 38.5971 87.6922 39.6388 88.558 40.1531C86.4679 40.5078 84.2644 40.855 82.2728 40.129C81.9949 40.0343 81.7312 39.9025 81.4887 39.7372C80.7697 39.2247 80.4223 38.3483 80.112 37.5202C79.7665 36.5918 79.4153 35.6467 79.3447 34.6589C79.3454 34.3447 79.301 34.0321 79.2128 33.7305C79.0103 33.192 78.4697 32.8671 77.9792 32.5681C77.4253 32.2648 76.9235 31.8749 76.4929 31.4132C76.2792 31.1807 76.1155 30.9068 76.012 30.6085C75.9084 30.3102 75.8672 29.9938 75.8909 29.679C75.9281 29.3726 76.0488 29.0774 76.06 28.7691C76.0711 28.4609 75.9336 28.1081 75.6382 28.0264C74.1166 27.5659 73.3902 25.7649 73.0521 24.2126C72.9062 23.4103 72.8408 22.5954 72.857 21.7802L72.8365 20.1963C72.6266 20.0054 72.4577 19.7738 72.3401 19.5155C72.2226 19.2573 72.1589 18.9778 72.1528 18.6942C72.173 18.5287 72.1699 18.3612 72.1436 18.1966C72.0701 17.9953 71.9504 17.8141 71.7943 17.6674C71.4583 17.3228 71.177 16.929 70.9601 16.4995Z" fill="#464353"/>
<path d="M66.2801 21.5201C66.2299 22.0103 66.3414 22.5135 66.2318 22.9944C66.189 23.1801 66.1147 23.3657 66.0608 23.5384C65.8961 24.2306 65.9674 24.9579 66.2633 25.605C66.5589 26.2458 66.9128 26.858 67.3205 27.434C67.4584 27.6306 67.5719 27.8432 67.6586 28.0671C67.7289 28.3023 67.7725 28.5446 67.7887 28.7894C67.8963 29.7727 68.0688 30.7478 68.3052 31.7083C68.5132 32.5401 70.8765 39.6517 71.4264 40.3108C71.5262 40.4568 71.6775 40.5596 71.85 40.5986C71.9744 40.6033 72.0981 40.5778 72.2104 40.5244L73.3252 40.0973C73.42 40.0683 73.5078 40.0203 73.5834 39.9562C73.6879 39.8342 73.7446 39.6785 73.7432 39.518C73.8231 38.6119 71.4543 31.4502 71.1533 30.5942C70.2429 28.0096 69.0316 25.5178 68.4389 22.8421C68.2736 22.0994 68.1863 20.9556 67.6419 20.3633C67.4171 20.1182 67.4933 20.2222 67.2239 20.3503C67.0877 20.4093 66.9561 20.4782 66.83 20.5564C66.6723 20.666 66.5411 20.8094 66.446 20.9761C66.3508 21.1428 66.2941 21.3287 66.2801 21.5201Z" fill="#464353"/>
<path d="M69.6633 26.4241C69.9624 28.0042 70.2708 29.5806 70.5774 31.1607L74.9397 30.0188C74.975 29.562 74.7316 29.1387 74.5681 28.7191C74.1705 27.722 74.1612 26.6116 73.8398 25.5867C73.5964 24.8068 73.1728 24.0901 72.9443 23.3047C72.8124 22.8479 72.7455 22.3763 72.6155 21.9139C72.476 21.4599 72.3046 21.0163 72.1027 20.5863C71.8578 19.9628 71.5384 19.3711 71.1514 18.8242C70.5941 19.0322 69.9996 19.2736 69.6819 19.7768C69.5189 20.0603 69.4259 20.3785 69.4106 20.7051C69.3344 21.6837 69.6893 22.6678 69.5722 23.6407C69.4517 24.5673 69.4824 25.5073 69.6633 26.4241Z" fill="#6C63FF"/>
<path d="M75.0121 47.443C75.2574 48.3714 74.9025 49.348 74.6127 50.2672C74.1763 51.6516 73.8788 53.0759 73.7246 54.5192C73.7057 54.8865 73.6318 55.2489 73.5054 55.5943C73.3679 55.9044 73.1338 56.1662 72.974 56.4614C72.5356 57.2375 72.5467 58.1845 72.6415 59.0721C72.7046 59.6569 72.7994 60.24 72.9164 60.8156C73.0595 61.5193 73.236 62.2546 73.0298 62.9416C73.3753 62.8655 73.6094 63.313 73.5871 63.6639C73.5648 64.0148 73.4515 64.4066 73.6206 64.7093C74.0479 64.8653 74.0516 65.452 74.0386 65.9069C74.0457 66.6957 74.1455 67.4809 74.3359 68.2465C74.9824 71.3535 75.6686 74.4519 76.3944 77.5416C77.9643 78.028 79.7981 78.535 81.2955 77.8609C81.5742 77.7365 81.8529 77.5379 81.916 77.2371C81.9324 77.0749 81.912 76.9112 81.8566 76.758L81.1469 74.1771C80.9741 73.5532 80.8013 72.9089 80.8923 72.2683C80.9611 71.7911 81.1692 71.2767 80.9351 70.8553C80.8552 70.7104 80.7289 70.5972 80.636 70.4598C80.2644 69.9157 80.4595 69.1879 80.4892 68.5287C80.5008 68.3807 80.4908 68.2319 80.4595 68.0868C80.4086 67.9173 80.3375 67.7546 80.2477 67.6022C79.6611 66.4641 79.3795 65.1937 79.4302 63.9146C79.4524 63.7513 79.4299 63.5851 79.3652 63.4337C79.3201 63.3711 79.2797 63.3053 79.2444 63.2368C79.2167 63.1176 79.2305 62.9925 79.2834 62.8822C79.0705 62.7207 78.8783 62.5336 78.7112 62.3252C78.8142 62.2611 78.9014 62.1746 78.966 62.0719C79.0307 61.9693 79.0712 61.8534 79.0844 61.7328C79.0977 61.6123 79.0833 61.4903 79.0425 61.3761C79.0016 61.2619 78.9354 61.1585 78.8487 61.0737C78.9244 61.0584 78.9945 61.0225 79.0511 60.9698C79.1076 60.9172 79.1485 60.8499 79.1691 60.7755C79.1897 60.701 79.1892 60.6223 79.1677 60.5481C79.1463 60.4739 79.1046 60.4071 79.0475 60.3551C78.9564 60.292 78.8357 60.2641 78.7706 60.1694C78.6703 60.032 78.7521 59.8408 78.8338 59.6941L79.2667 58.9124C79.59 58.3312 79.6624 57.6126 80.0099 57.0556C80.5078 56.2442 80.8329 55.3399 81.1543 54.4449L82.4047 50.9969L83.2463 51.7266C83.5266 51.9406 83.7616 52.2082 83.9374 52.5139C84.0571 52.8159 84.1328 53.1336 84.1622 53.4571C84.4706 55.3288 85.6485 56.9516 86.0851 58.7954C86.1818 59.2057 86.2468 59.6365 86.4827 59.9875C86.5672 60.0952 86.643 60.2094 86.7094 60.3291C86.7709 60.5117 86.8029 60.7028 86.8041 60.8954C86.8431 61.2726 86.9628 61.6369 87.1552 61.9637C87.3475 62.2905 87.608 62.5721 87.9189 62.7894C88.3332 63.0734 88.8478 63.2684 89.0726 63.7178C89.1176 63.8569 89.18 63.9898 89.2584 64.1132C89.4591 64.3546 89.892 64.3825 89.9774 64.6851C90.0257 64.8541 89.9365 65.0565 90.0313 65.205C90.0851 65.2738 90.1563 65.327 90.2375 65.3592L91.447 65.9626C92.7995 66.6385 93.4907 68.1908 94.4884 69.3216C94.8329 69.6899 95.138 70.0931 95.3987 70.5247C95.8298 71.2953 96.0286 72.2627 96.7568 72.7529C96.9526 72.8544 97.1308 72.9866 97.2845 73.1447C97.513 73.4455 97.4294 73.867 97.4498 74.2458C97.4703 74.6246 97.7601 75.0757 98.1205 74.9606C97.9942 75.4194 97.9942 75.9037 98.1205 76.3625C99.7029 76.2813 101.212 75.6704 102.405 74.6283C102.758 74.32 103.098 73.9264 103.102 73.4585C103.107 73.3777 103.089 73.2971 103.05 73.2264C102.978 73.135 102.884 73.0639 102.776 73.0203C101.645 72.4075 101.305 70.9871 100.733 69.834C100.233 68.8165 99.4935 67.9401 98.8748 66.995C97.5297 64.9618 96.6119 62.5016 94.5775 61.1591C94.1298 60.8639 93.6096 60.6021 93.3848 60.1137C93.2603 59.8408 93.2454 59.5288 93.147 59.2466C93.0485 58.9644 92.8126 58.6896 92.5116 58.6896C92.6788 58.2811 92.6453 57.7834 92.6565 57.3415C92.6679 57.1454 92.6453 56.9488 92.5896 56.7604C92.5123 56.5577 92.412 56.3645 92.2905 56.1847C91.7597 55.2866 91.4943 54.2565 91.525 53.2139C91.5399 52.6773 91.6347 52.1239 91.473 51.6115C91.3913 51.3534 91.2482 51.1176 91.1497 50.8688C91.0014 50.4179 90.923 49.947 90.9175 49.4724L90.806 47.6881C90.7892 47.0938 90.712 46.5028 90.5757 45.9241C90.2041 44.539 89.8325 38.7365 88.5598 38.0829C87.2872 37.4293 85.1005 41.8949 83.668 41.9821C83.0343 42.0085 82.4081 42.1293 81.8101 42.3405C80.857 42.697 80.0582 43.3617 79.2797 44.0116L76.6452 46.2231C76.0879 46.6817 75.6271 47.1199 75.0121 47.443Z" fill="#464353"/>
<path d="M62.3674 9.56067C62.947 8.76967 63.9429 8.35004 64.9238 8.31476C65.9048 8.27948 66.8709 8.58771 67.7497 9.02405C68.009 9.17147 68.2863 9.28504 68.5746 9.36199C69.039 9.45669 69.5555 9.33042 69.9754 9.54767C70.5328 9.8429 70.6405 10.5949 70.5922 11.2188C70.5439 11.8427 70.4269 12.5352 70.7594 13.0756C70.8774 13.2297 70.9848 13.3916 71.0809 13.5602C71.2239 13.8814 71.1403 14.2528 71.0548 14.5926C70.8375 14.4069 70.7149 14.1265 70.5216 13.9111C70.3284 13.6957 69.9921 13.5509 69.7525 13.7125C69.5128 13.874 69.5165 14.1674 69.5035 14.431C69.4905 14.6947 69.4236 15.0104 69.1747 15.0958C69.0707 15.1194 68.962 15.1114 68.8626 15.0726C68.7633 15.0339 68.6778 14.9663 68.6173 14.8785C68.1918 14.3586 68.3628 13.5286 67.941 13.005C67.7014 12.7079 67.3019 12.5631 67.0808 12.2512C66.9062 12.0061 66.8616 11.6941 66.7092 11.4305C66.5569 11.1668 66.202 10.9737 65.9661 11.1557C65.8856 11.2325 65.8184 11.3223 65.7673 11.4212C65.6202 11.6318 65.4062 11.7867 65.1601 11.8608C64.914 11.9349 64.6501 11.924 64.411 11.8297C64.2284 11.7176 64.0307 11.6319 63.8239 11.5753C63.6886 11.5685 63.5541 11.5997 63.4356 11.6653C63.3171 11.7309 63.2193 11.8284 63.1533 11.9466C63.0199 12.1829 62.9555 12.4518 62.9675 12.7228C62.9675 13.0941 63.0343 13.4896 62.8225 13.7867C62.742 13.8986 62.6412 13.9943 62.5253 14.069C62.215 14.2676 61.7821 14.4013 61.496 14.1748C61.399 14.0845 61.3269 13.9708 61.2866 13.8447C61.2462 13.7185 61.239 13.5841 61.2656 13.4544C61.3213 13.1959 61.3946 12.9416 61.4849 12.6931C61.6484 12.1175 61.4347 11.4694 61.6131 10.9273C61.7999 10.439 62.0537 9.97904 62.3674 9.56067Z" fill="#464353"/>
<path d="M64.7213 22.6603C64.6934 22.7957 64.7077 22.9363 64.7622 23.0633C64.8174 23.1497 64.8926 23.2217 64.9814 23.2731C65.6062 23.6621 66.3168 23.8922 67.0511 23.9434C67.151 23.9451 67.2491 23.9706 67.3372 24.0176C67.5119 24.1328 67.523 24.389 67.458 24.5932C67.3713 24.7859 67.3263 24.9947 67.3261 25.206C67.3799 25.5941 67.8407 25.763 68.229 25.8206C68.7734 25.8893 69.3697 25.854 69.8008 25.5142C70.0928 25.2481 70.3153 24.9147 70.4492 24.5431C71.5156 22.094 71.889 19.3868 72.9685 16.9451C73.0503 16.7857 73.1049 16.6138 73.1301 16.4364C73.1415 16.3476 73.1289 16.2573 73.0936 16.1751C73.0583 16.0928 73.0017 16.0214 72.9295 15.9685C72.7288 15.844 72.4167 15.9146 72.2811 15.7196C72.2142 15.6212 72.2216 15.4875 72.1621 15.3836C72.0377 15.1626 71.7107 15.1979 71.4877 15.0698C71.3131 14.9769 71.1923 14.7857 70.9973 14.7485C70.9015 14.7431 70.8058 14.7601 70.7177 14.7982C70.6297 14.8362 70.5517 14.8942 70.4901 14.9676C69.8565 15.5581 69.5239 16.3955 69.1709 17.1865C68.6319 18.399 68.0009 19.5685 67.2833 20.6847C67.3669 20.5547 66.882 19.5706 66.6925 19.5279C66.36 19.4611 65.9345 20.0441 65.7543 20.2614C65.1888 20.9466 64.8304 21.7788 64.7213 22.6603Z" fill="#6C63FF"/>
<path opacity="0.1" d="M71.471 15.2422C71.3376 15.2444 71.2063 15.2766 71.087 15.3364C70.9677 15.3962 70.8634 15.482 70.7817 15.5875C70.5829 15.8456 70.5439 16.1873 70.4938 16.5159C70.3247 17.5572 69.9529 18.5552 69.3995 19.4534" fill="black"/>
<path opacity="0.1" d="M72.4185 15.9834C72.2343 15.9875 72.0543 16.0395 71.8963 16.1342C71.7383 16.229 71.6078 16.3632 71.5174 16.5237C71.3945 16.8158 71.318 17.1253 71.2908 17.441C71.1315 18.1409 70.8243 18.7987 70.3897 19.3702" fill="black"/>
<path d="M116.573 52.2836V49.9775C116.573 48.2799 115.897 46.6519 114.696 45.4517C113.495 44.2514 111.866 43.5771 110.167 43.5771H19.0396C17.3409 43.5771 15.7118 44.2514 14.5105 45.4517C13.3092 46.6519 12.6341 48.2799 12.6336 49.9775V54.2296L116.573 52.2836Z" fill="#33323D"/>
<path d="M44.3905 40.8736C44.3905 40.8736 44.1304 57.0017 46.9915 62.3084C49.8527 67.6151 51.0789 90.7006 51.0789 90.7006C51.0789 90.7006 81.0726 93.8014 101.974 86.987C122.875 80.1726 167.349 77.3855 167.349 77.3855L159.854 26.9012C159.854 26.9012 122.829 24.5283 101.766 34.5679C80.7029 44.6076 44.3905 40.8736 44.3905 40.8736Z" fill="#8DD070"/>
<path opacity="0.1" d="M44.3905 40.8736C44.3905 40.8736 44.1304 57.0017 46.9915 62.3084C49.8527 67.6151 51.0789 90.7006 51.0789 90.7006C51.0789 90.7006 81.0726 93.8014 101.974 86.987C122.875 80.1726 167.349 77.3855 167.349 77.3855L159.854 26.9012C159.854 26.9012 122.829 24.5283 101.766 34.5679C80.7029 44.6076 44.3905 40.8736 44.3905 40.8736Z" fill="black"/>
<path d="M51.0287 46.765C51.0287 46.765 50.0905 60.0726 52.4444 64.3247C54.7984 68.5767 54.908 87.5587 54.908 87.5587C54.908 87.5587 81.9012 88.8102 101.102 82.278C120.304 75.7458 160.653 71.5086 160.653 71.5086L156.068 30.2229C156.068 30.2229 122.682 29.8793 103.196 39.0742C83.7108 48.269 51.0287 46.765 51.0287 46.765Z" fill="#8DD070"/>
<path opacity="0.1" d="M102.9 74.7193C106.74 74.2412 109.022 67.1799 107.996 58.9474C106.97 50.7149 103.025 44.4287 99.1843 44.9068C95.3436 45.3849 93.0618 52.4462 94.0878 60.6787C95.1138 68.9112 99.0591 75.1974 102.9 74.7193Z" fill="black"/>
<path opacity="0.2" d="M139.555 2.30811C139.555 2.30811 103.585 11.4064 86.622 27.4212C69.6596 43.436 33.951 51.0192 33.951 51.0192C33.951 51.0192 38.6552 66.4472 43.0063 70.6213C47.3575 74.7954 55.6102 96.3935 55.6102 96.3935C55.6102 96.3935 85.1079 90.1436 102.906 77.2426C120.705 64.3416 162.186 48.0483 162.186 48.0483L139.555 2.30811Z" fill="black"/>
<path d="M33.4103 48.7092C33.4103 48.7092 38.1126 64.1391 42.4601 68.3132C46.8076 72.4873 55.064 94.0836 55.064 94.0836C55.064 94.0836 84.5654 87.8355 102.366 74.9345C120.166 62.0335 161.643 45.7458 161.643 45.7458L139.013 0C139.013 0 103.044 9.09828 86.0814 25.1131C69.1189 41.1279 33.4103 48.7092 33.4103 48.7092Z" fill="#8DD070"/>
<path opacity="0.1" d="M33.4103 48.7092C33.4103 48.7092 38.1126 64.1391 42.4601 68.3132C46.8076 72.4873 55.064 94.0836 55.064 94.0836C55.064 94.0836 84.5654 87.8355 102.366 74.9345C120.166 62.0335 161.643 45.7458 161.643 45.7458L139.013 0C139.013 0 103.044 9.09828 86.0814 25.1131C69.1189 41.1279 33.4103 48.7092 33.4103 48.7092Z" fill="black"/>
<path d="M41.5312 52.2817C41.5312 52.2817 44.7249 65.2365 48.2716 68.5602C51.8183 71.8839 57.7468 89.9133 57.7468 89.9133C57.7468 89.9133 83.8204 82.8241 100.09 70.7178C116.359 58.6115 153.465 42.2216 153.465 42.2216L136.426 4.3208C136.426 4.3208 104.547 14.2305 88.8237 28.9586C73.1004 43.6866 41.5312 52.2817 41.5312 52.2817Z" fill="#8DD070"/>
<path opacity="0.1" d="M99.4884 62.9783C102.997 61.3454 103.001 53.925 99.4964 46.4043C95.9922 38.8837 90.3071 34.1107 86.7985 35.7436C83.2899 37.3765 83.2863 44.7969 86.7906 52.3176C90.2948 59.8382 95.9798 64.6112 99.4884 62.9783Z" fill="black"/>
<path opacity="0.1" d="M119.033 54.5468V118.606C119.033 119.334 118.89 120.054 118.611 120.726C118.332 121.398 117.924 122.009 117.409 122.523C116.894 123.038 116.283 123.446 115.61 123.724C114.938 124.002 114.217 124.145 113.489 124.145H18.1794C16.7099 124.144 15.3007 123.561 14.2618 122.522C13.2229 121.483 12.6392 120.075 12.6392 118.606V48.0889C15.3703 49.1027 15.3703 49.1027 18.1794 49.0173H113.489C114.957 49.0173 116.366 49.5995 117.405 50.6361C118.445 51.6728 119.03 53.0792 119.033 54.5468Z" fill="black"/>
<path d="M119.033 55.3621V119.421C119.032 120.891 118.448 122.299 117.409 123.338C116.369 124.377 114.959 124.96 113.489 124.96H18.1794C16.7099 124.96 15.3007 124.376 14.2618 123.337C13.2229 122.299 12.6392 120.89 12.6392 119.421V48.9023C15.3703 49.9143 15.3703 49.9143 18.1794 49.8307H113.489C114.958 49.8307 116.366 50.4132 117.406 51.4503C118.445 52.4873 119.03 53.8943 119.033 55.3621Z" fill="#504F60"/>
<path opacity="0.1" d="M118.762 79.0454V99.5314H98.8823C96.188 99.4951 93.6163 98.4 91.7238 96.483C89.8314 94.566 88.7703 91.9814 88.7703 89.2884C88.7703 86.5954 89.8314 84.0108 91.7238 82.0938C93.6163 80.1768 96.188 79.0817 98.8823 79.0454H118.762Z" fill="black"/>
<path d="M119.033 78.4995V98.9892H99.1535C96.4592 98.953 93.8875 97.8578 91.9951 95.9408C90.1026 94.0239 89.0416 91.4392 89.0416 88.7462C89.0416 86.0533 90.1026 83.4686 91.9951 81.5516C93.8875 79.6346 96.4592 78.5395 99.1535 78.5032L119.033 78.4995Z" fill="#33323D"/>
<path opacity="0.1" d="M100.107 93.2833C102.314 93.2833 104.103 91.4952 104.103 89.2894C104.103 87.0836 102.314 85.2954 100.107 85.2954C97.8996 85.2954 96.1104 87.0836 96.1104 89.2894C96.1104 91.4952 97.8996 93.2833 100.107 93.2833Z" fill="black"/>
<path d="M100.378 92.7413C102.585 92.7413 104.374 90.9532 104.374 88.7474C104.374 86.5416 102.585 84.7534 100.378 84.7534C98.1708 84.7534 96.3816 86.5416 96.3816 88.7474C96.3816 90.9532 98.1708 92.7413 100.378 92.7413Z" fill="#6C63FF"/>
<path d="M153.539 78.3232C153.697 80.0333 152.402 81.6932 152.78 83.3681C152.861 83.7264 153.015 84.0644 153.071 84.4264C153.227 85.4217 152.635 86.3631 152.068 87.1949L147.2 94.3324C147.005 94.6462 146.772 94.9344 146.505 95.1902C145.577 96.0184 144.179 95.933 142.957 96.1799C142.097 96.3543 141.286 96.7128 140.579 97.2309C140.549 97.2561 140.53 97.2917 140.526 97.3304C140.522 97.3691 140.533 97.4079 140.556 97.4388C140.759 97.7138 141.026 97.9338 141.335 98.0788C141.644 98.2237 141.984 98.2891 142.325 98.2688C142.453 98.4378 142.325 98.6847 142.139 98.8054C141.877 98.9911 141.519 99.0357 141.467 99.4776C141.448 99.6318 141.48 99.7879 141.556 99.9232C141.752 100.223 142.057 100.436 142.407 100.516C144.092 101.03 145.913 100.126 147.174 98.8945C148.436 97.6635 149.341 96.1094 150.578 94.856C151.263 94.1634 152.042 93.5693 152.748 92.8971C154.156 91.5565 155.251 89.9262 156.308 88.2941C156.625 87.8021 156.945 87.297 157.079 86.727C157.212 86.157 157.149 85.5813 157.3 85.0299C157.497 84.3057 158.026 83.7301 158.467 83.123C159.33 81.9346 159.906 80.4807 159.793 79.0176C159.68 77.5544 158.771 76.108 157.389 75.6104C156.961 75.4384 156.488 75.4098 156.042 75.5287C155.475 75.7032 155.057 76.1711 154.671 76.6186L153.742 77.6863C153.51 77.9205 153.327 78.1982 153.203 78.5033C153.144 78.6565 153.129 78.8235 153.162 78.9846C153.195 79.1456 153.274 79.2937 153.389 79.4112" fill="#FBBEBE"/>
<path opacity="0.05" d="M153.539 78.3232C153.697 80.0333 152.402 81.6932 152.78 83.3681C152.861 83.7264 153.015 84.0644 153.071 84.4264C153.227 85.4217 152.635 86.3631 152.068 87.1949L147.2 94.3324C147.005 94.6462 146.772 94.9344 146.505 95.1902C145.577 96.0184 144.179 95.933 142.957 96.1799C142.097 96.3543 141.286 96.7128 140.579 97.2309C140.549 97.2561 140.53 97.2917 140.526 97.3304C140.522 97.3691 140.533 97.4079 140.556 97.4388C140.759 97.7138 141.026 97.9338 141.335 98.0788C141.644 98.2237 141.984 98.2891 142.325 98.2688C142.453 98.4378 142.325 98.6847 142.139 98.8054C141.877 98.9911 141.519 99.0357 141.467 99.4776C141.448 99.6318 141.48 99.7879 141.556 99.9232C141.752 100.223 142.057 100.436 142.407 100.516C144.092 101.03 145.913 100.126 147.174 98.8945C148.436 97.6635 149.341 96.1094 150.578 94.856C151.263 94.1634 152.042 93.5693 152.748 92.8971C154.156 91.5565 155.251 89.9262 156.308 88.2941C156.625 87.8021 156.945 87.297 157.079 86.727C157.212 86.157 157.149 85.5813 157.3 85.0299C157.497 84.3057 158.026 83.7301 158.467 83.123C159.33 81.9346 159.906 80.4807 159.793 79.0176C159.68 77.5544 158.771 76.108 157.389 75.6104C156.961 75.4384 156.488 75.4098 156.042 75.5287C155.475 75.7032 155.057 76.1711 154.671 76.6186L153.742 77.6863C153.51 77.9205 153.327 78.1982 153.203 78.5033C153.144 78.6565 153.129 78.8235 153.162 78.9846C153.195 79.1456 153.274 79.2937 153.389 79.4112" fill="black"/>
<path d="M157.224 122.348C156.161 122.996 154.836 123.035 153.601 122.884C153.402 122.86 153.166 122.845 153.043 123C152.858 123.222 153.077 123.557 153.303 123.729C154.032 124.276 154.888 124.628 155.791 124.752C156.597 124.867 157.411 124.921 158.225 124.914C160.454 124.953 162.684 124.99 164.878 124.671C165.008 124.661 165.135 124.624 165.25 124.563C165.391 124.464 165.489 124.314 165.525 124.145C165.675 123.573 165.385 122.961 164.947 122.563C164.508 122.166 163.945 121.945 163.395 121.731L161.463 120.979C161.01 120.803 160.284 120.335 159.791 120.372C158.866 120.439 157.991 121.898 157.224 122.348Z" fill="#3F3D56"/>
<path opacity="0.05" d="M157.224 122.348C156.161 122.996 154.836 123.035 153.601 122.884C153.402 122.86 153.166 122.845 153.043 123C152.858 123.222 153.077 123.557 153.303 123.729C154.032 124.276 154.888 124.628 155.791 124.752C156.597 124.867 157.411 124.921 158.225 124.914C160.454 124.953 162.684 124.99 164.878 124.671C165.008 124.661 165.135 124.624 165.25 124.563C165.391 124.464 165.489 124.314 165.525 124.145C165.675 123.573 165.385 122.961 164.947 122.563C164.508 122.166 163.945 121.945 163.395 121.731L161.463 120.979C161.01 120.803 160.284 120.335 159.791 120.372C158.866 120.439 157.991 121.898 157.224 122.348Z" fill="black"/>
<path d="M158.578 96.7127C157.774 97.7822 156.941 99.017 157.14 100.341C157.248 101.054 157.647 101.683 157.941 102.342C158.338 103.237 158.546 104.199 158.751 105.157C159.052 106.557 159.355 107.961 159.539 109.383C159.748 110.99 158.762 115.637 158.671 117.254C158.649 117.644 158.602 118.066 158.331 118.346C158.225 118.458 158.084 118.547 158.036 118.692C158.007 118.831 158.03 118.976 158.101 119.1C158.554 120.121 159.481 120.883 160.516 121.317C161.551 121.752 164.046 122.502 165.173 122.541C165.322 122.557 165.473 122.537 165.612 122.483C165.762 122.392 165.88 122.256 165.95 122.095C166.758 120.55 165.982 115.058 165.993 113.314C166.004 111.86 166.348 110.416 166.285 108.964C166.232 107.798 165.913 106.658 165.807 105.495C165.621 103.59 165.971 101.676 166.322 99.7931C166.589 98.3485 166.859 96.9039 167.202 95.4779C167.412 94.6071 167.656 93.7288 168.131 92.9731C168.503 92.3734 169.025 91.872 169.458 91.302C170.659 89.7276 171.193 87.7442 170.944 85.7799C170.918 85.5942 168.157 86.4799 167.914 86.5857C166.921 87.006 166.007 87.5932 165.213 88.3218C164.573 88.9309 164.07 89.7441 163.511 90.4256C162.719 91.3899 161.938 92.361 161.166 93.3389C160.285 94.4567 159.423 95.5813 158.578 96.7127Z" fill="#464353"/>
<path opacity="0.05" d="M158.578 96.6477C157.774 97.7172 156.941 98.9539 157.14 100.276C157.248 100.991 157.647 101.62 157.941 102.279C158.338 103.172 158.546 104.136 158.751 105.092C159.052 106.494 159.355 107.898 159.539 109.318C159.748 110.926 158.762 115.572 158.671 117.189C158.649 117.579 158.602 118.003 158.331 118.283C158.225 118.393 158.084 118.482 158.036 118.627C158.007 118.766 158.03 118.911 158.101 119.035C158.554 120.058 159.481 120.818 160.516 121.263C161.551 121.709 164.046 122.097 165.174 122.134C165.322 122.15 165.473 122.131 165.612 122.076C165.762 121.986 165.881 121.851 165.95 121.69C166.758 120.145 165.982 115.006 165.993 113.26C166.004 111.805 166.348 110.362 166.285 108.908C166.232 107.742 165.913 106.602 165.807 105.441C165.621 103.535 165.971 101.62 166.322 99.7374C166.589 98.2947 166.859 96.8501 167.202 95.4223C167.412 94.5514 167.656 93.6732 168.131 92.9174C168.503 92.3177 169.025 91.8164 169.458 91.2463C170.66 89.6722 171.194 87.6886 170.944 85.7242C170.918 85.5386 168.157 86.4242 167.914 86.5301C166.921 86.9517 166.008 87.5394 165.213 88.268C164.573 88.8752 164.07 89.6885 163.511 90.3699C162.719 91.3342 161.938 92.3059 161.166 93.2851C160.285 94.3942 159.423 95.5151 158.578 96.6477Z" fill="black"/>
<path d="M149.627 73.1579C152.117 73.1579 154.136 71.1403 154.136 68.6515C154.136 66.1626 152.117 64.145 149.627 64.145C147.136 64.145 145.118 66.1626 145.118 68.6515C145.118 71.1403 147.136 73.1579 149.627 73.1579Z" fill="#FBBEBE"/>
<path d="M153.688 68.462C154.105 69.1261 154.651 69.6996 155.294 70.1481C155.937 70.5966 156.664 70.9111 157.432 71.0727L157.092 72.3074C156.505 74.4279 155.845 76.6709 154.206 78.1415C154.392 77.4229 154.154 76.656 153.749 76.0322C153.344 75.4083 152.776 74.9181 152.218 74.4335L149.623 72.1867C149.548 72.1258 149.485 72.0515 149.437 71.9676C149.373 71.8092 149.373 71.6322 149.437 71.4737C149.768 70.4451 150.712 69.8026 151.481 69.1082C151.867 68.7491 152.211 68.348 152.508 67.9124C153.027 67.1734 153.348 67.9161 153.688 68.462Z" fill="#FBBEBE"/>
<path d="M143.687 64.1204L143.585 63.2737C144.296 63.4594 144.973 62.8541 145.428 62.2283C145.883 61.6026 146.305 60.8654 146.998 60.6036C147.839 60.288 148.731 60.7893 149.536 61.2127C150.436 61.7121 151.425 62.0336 152.447 62.1596C152.61 62.165 152.772 62.1912 152.928 62.2376C153.452 62.4233 153.701 63.0806 153.777 63.6766C153.853 64.2727 153.833 64.9058 154.091 65.4369C154.277 65.8398 154.623 66.1387 154.834 66.5361C155.392 67.6019 154.853 69.0595 155.434 70.1048L153.989 68.7809C153.857 68.6602 153.671 68.534 153.525 68.6361C153.409 68.7178 153.4 68.8942 153.354 69.0353C153.214 69.4475 152.698 69.5701 152.324 69.4067C151.951 69.2433 151.678 68.8886 151.395 68.5655C150.756 67.8117 149.995 67.1488 149.103 66.8276C148.712 66.6815 148.294 66.6202 147.878 66.6478C147.462 66.6753 147.056 66.791 146.687 66.9873C146.013 67.3679 145.519 68.2555 144.692 68.287C143.559 68.3297 143.087 66.2204 142.563 65.3867C142.755 65.2426 142.89 65.0356 142.944 64.802C142.998 64.5684 142.969 64.3232 142.86 64.1093C142.936 64.0777 143.67 63.9904 143.687 64.1204Z" fill="#464353"/>
<path d="M87.9152 37.7743C87.5529 38.0964 87.2179 38.4479 86.9138 38.8253C86.6076 39.2079 86.4446 39.6853 86.453 40.1752C86.4546 40.3172 86.5 40.4553 86.5831 40.5706C86.6255 40.6258 86.6841 40.6664 86.7507 40.6867C86.8173 40.707 86.8886 40.706 86.9546 40.6839C87.0293 40.6459 87.0932 40.5897 87.1404 40.5205C87.3368 40.2847 87.5452 40.0591 87.7647 39.8446C87.8446 39.7648 87.9505 39.6812 88.0582 39.711C88.1065 39.7281 88.1499 39.7568 88.1846 39.7945C88.3096 39.9025 88.4006 40.0444 88.4465 40.203C88.5116 40.4871 88.3462 40.7712 88.1585 40.994C87.9709 41.2168 87.7498 41.4303 87.6736 41.7107C87.6448 41.7848 87.6448 41.8669 87.6736 41.941C87.7095 41.9945 87.7598 42.037 87.8186 42.0635C88.0846 42.2099 88.3796 42.2961 88.6827 42.316C88.9857 42.3359 89.2895 42.289 89.5724 42.1786C89.944 42.0282 90.2747 41.7701 90.6574 41.6364C90.8231 41.5911 90.9837 41.5289 91.1367 41.4508C91.2462 41.3779 91.3402 41.2842 91.4132 41.1749C91.4862 41.0655 91.5369 40.9429 91.5622 40.8139C91.6105 40.5562 91.6199 40.2927 91.5901 40.0322C91.5437 39.0235 91.3277 38.0298 90.951 37.0929C90.9291 37.0324 90.892 36.9787 90.8432 36.9369C90.7873 36.9029 90.7228 36.8855 90.6574 36.8868C90.1818 36.8366 89.4015 36.5934 88.9426 36.7698C88.7821 36.8577 88.6436 36.9809 88.5376 37.13C88.4521 37.2247 87.9152 37.6499 87.9152 37.7743Z" fill="#A1616A"/>
<path d="M87.7647 37.3549C87.7647 36.9018 87.2073 35.8082 88.0935 35.7357C88.0935 35.2511 87.408 34.9503 87.5361 34.436C87.577 34.2652 87.7219 34.1259 87.7387 33.9514C87.7944 33.4556 86.8989 33.1864 87.0475 32.711C87.1033 32.5253 87.3002 32.4177 87.3429 32.2338C87.4433 31.8049 86.6759 31.6137 86.6611 31.1736C86.6611 31.0251 86.7447 30.8858 86.7373 30.7373C86.7373 30.5516 86.5756 30.4105 86.4864 30.2489C86.2542 29.8349 86.3675 29.1943 85.9439 28.9807C86.2245 29.0049 86.3155 28.5889 86.2003 28.3346C86.0851 28.0802 85.8492 27.8592 85.8473 27.577C85.8612 27.4747 85.8612 27.371 85.8473 27.2688C85.7693 26.9977 85.3253 26.9754 85.2509 26.7117C85.2413 26.6105 85.2382 26.5088 85.2417 26.4072C85.2119 26.1974 84.9964 26.0637 84.7939 26.0043C84.5835 25.9686 84.3811 25.8963 84.1957 25.7908C84.0656 25.6924 83.9151 25.529 83.7758 25.6051C83.7238 25.6367 83.6978 25.6961 83.6587 25.7406C83.4915 25.9356 83.172 25.8502 82.962 25.7072C82.3415 25.2857 82.0331 24.53 81.9012 23.7929C81.7693 23.0557 81.773 22.2944 81.6076 21.5647C81.5572 21.3373 81.4901 21.1139 81.407 20.8963C81.3364 20.7106 81.1097 20.4191 81.0949 20.2315C81.0614 19.8045 81.9458 20.096 82.282 20.1387C82.6085 20.1706 82.9313 20.2327 83.2463 20.3244C83.5825 20.4513 83.9118 20.5957 84.2328 20.757C85.5742 21.3493 87.1943 21.4217 88.2719 22.417C88.6267 22.7438 88.9259 23.1727 89.3866 23.3212C89.5979 23.3617 89.8064 23.4157 90.0109 23.4828C90.5218 23.7223 90.6017 24.4 90.8803 24.8902C90.968 25.0197 91.0444 25.1563 91.1089 25.2987C91.1626 25.4666 91.1877 25.6424 91.1832 25.8186L91.2222 27.1054C91.2854 29.2611 91.3485 31.4224 91.1182 33.5652C91.0438 34.2726 90.9324 35.0005 91.1423 35.68C91.198 35.8657 91.2761 36.0403 91.3281 36.2278C91.3741 36.4477 91.3977 36.6716 91.3987 36.8962L91.4284 37.7299C91.4387 37.7948 91.4241 37.8611 91.3875 37.9156C91.3565 37.9408 91.3202 37.9587 91.2813 37.9681C91.2424 37.9774 91.2019 37.9779 91.1627 37.9695C90.0016 37.8655 88.8274 37.2119 87.7312 37.6074" fill="#464353"/>
<path d="M140.755 101.414C148.344 101.414 154.496 100.525 154.496 99.4293C154.496 98.333 148.344 97.4443 140.755 97.4443C133.166 97.4443 127.014 98.333 127.014 99.4293C127.014 100.525 133.166 101.414 140.755 101.414Z" fill="#504F60"/>
<path d="M152.577 99.5259C152.336 98.4917 152.185 97.5837 152.185 97.5837C152.185 97.5837 152.241 96.4585 151.735 95.6136V95.3314V93.2518C151.879 92.8742 152.055 92.5096 152.261 92.1619C152.633 91.5083 152.261 89.113 152.261 89.113C152.261 89.113 150.873 85.7355 151.21 83.5928C151.546 81.4501 148.36 74.0786 148.36 74.0786C148.379 73.3677 148.48 72.6613 148.659 71.973C148.693 71.8283 148.707 71.6796 148.7 71.5311C148.7 71.5125 148.7 71.4958 148.7 71.4772C148.7 71.4587 148.7 71.4884 148.7 71.4939C148.651 70.0809 147.533 67.4331 147.533 67.4331L147.683 62.3864C147.683 62.3864 148.397 59.4155 147.234 55.4141C146.827 54.0197 146.567 52.9037 146.401 52.0422C146.383 51.9456 146.364 51.8565 146.349 51.7618C148.744 51.3905 150.574 51.0934 150.574 51.0934C150.574 51.0934 149.185 45.2835 148.246 44.2659C147.308 43.2484 146.557 40.0529 146.557 40.0529C146.557 40.0529 146.069 35.9512 146.858 34.7518C147.648 33.5523 147.76 31.4838 147.76 31.4838C147.76 31.4838 149.56 30.184 149.787 29.5954C150.013 29.0068 150.387 27.7071 150.387 27.0182C150.387 26.3293 150.162 25.7185 150.236 25.3471C150.31 24.9757 149.71 23.6036 150.011 22.95C150.089 22.7492 150.129 22.5359 150.13 22.3205C150.131 22.3144 150.131 22.3081 150.13 22.302C150.133 21.73 150.08 21.1591 149.972 20.5974C149.452 20.1579 148.844 19.8333 148.189 19.6449L148.15 19.4889L148.048 19.0804C147.991 19.0428 147.932 19.008 147.871 18.9764V18.8279L147.854 18.2374L148.137 16.9117C148.694 14.6056 145.612 14.2621 145.612 14.2621C145.425 13.9083 145.114 13.6359 144.739 13.4971C144.12 13.2798 144.636 16.9655 144.924 17.2106C145.142 17.3963 145.814 18.5438 146.139 19.112L146.192 19.2048C146.141 19.2506 146.093 19.3002 146.05 19.3534L146.167 20.1537L146.186 20.2762C145.982 20.5297 145.816 20.8119 145.694 21.1136C145.694 21.1136 146.251 21.7301 146.145 22.4134C146.039 23.0967 146.318 23.9638 146.331 24.0102C146.297 23.9712 145.902 23.5442 145.506 23.6481C145.11 23.7521 144.005 24.0845 144.005 24.0845C144.005 24.0845 143.18 24.2293 143.262 24.4113C143.343 24.5932 142.704 25.3917 142.704 25.3917L140.486 23.2898C140.464 23.2266 140.439 23.1635 140.421 23.1041C140.33 22.801 140.268 22.4902 140.235 22.1757C140.477 22.1183 140.714 22.0432 140.945 21.951C141.178 21.871 141.388 21.736 141.558 21.5574C141.783 21.2919 141.825 20.9317 141.917 20.6011C142.091 19.955 142.474 19.3812 142.74 18.7666C143.189 17.7281 143.334 16.5831 143.158 15.4653C143.124 15.1208 143.007 14.7896 142.818 14.4997C142.455 14.0021 141.798 13.7997 141.32 13.4024C140.843 13.005 140.534 12.3978 139.977 12.1026C139.473 11.8334 138.862 11.8649 138.294 11.9578C137.183 12.1408 136.117 12.5286 135.148 13.1016C134.825 13.2872 134.468 13.5156 134.097 13.4469C133.777 13.3894 133.539 13.135 133.339 12.8899C133.341 12.8797 133.344 12.8698 133.348 12.8602C133.339 12.8511 133.331 12.8412 133.324 12.8305C133.089 13.3519 132.971 13.9185 132.978 14.4904C132.978 14.5796 132.978 14.6761 132.989 14.756V14.8488C132.989 14.8748 132.989 14.9008 132.989 14.9249C132.989 14.9645 132.984 15.0039 132.973 15.0419C132.926 15.1555 132.855 15.2575 132.765 15.3409C132.696 15.4183 132.634 15.5008 132.579 15.5878C132.579 15.5581 132.597 15.5284 132.608 15.4968C132.467 15.7036 132.387 15.9464 132.378 16.1968C132.368 16.3792 132.428 16.5585 132.545 16.6982C132.657 16.8061 132.778 16.9031 132.908 16.9878C132.863 17.2329 132.841 17.4815 132.841 17.7305C132.845 18.4689 133.04 19.1937 133.406 19.8348C133.773 20.4759 134.298 21.0117 134.933 21.3903C134.959 21.4516 134.983 21.5147 135.007 21.576C135.291 22.3187 135.505 23.1914 135.41 23.9898C135.41 24.0473 135.393 24.1068 135.384 24.1643C135.375 24.2219 135.328 24.2256 135.304 24.2572C135.304 24.2572 131.639 24.2943 130.777 23.5144C129.915 22.7346 128.599 25.4214 128.599 25.4214C128.599 25.4214 127.286 25.6758 127.022 25.4214C126.758 25.167 125.222 25.3861 125.222 25.3861C124.592 24.8266 123.773 24.5278 122.931 24.5505C122.421 24.163 121.857 23.8504 121.259 23.6221L121.218 23.6073C120.954 23.511 120.671 23.4755 120.391 23.5033C120.391 23.5033 118.589 22.0179 118.063 21.2157C117.537 20.4136 115.035 17.452 115.024 17.439V17.2961L114.996 16.8653C114.921 16.8769 114.846 16.8831 114.771 16.8838C114.758 16.8411 114.739 16.791 114.721 16.7334C114.577 16.3133 114.399 15.9053 114.189 15.5135C114.189 15.5135 114.189 14.9695 114.347 14.8321C114.505 14.6947 114.282 12.6986 114.282 12.6986C114.282 12.6986 112.659 8.90522 111.204 11.7368C111.204 11.7368 108.454 13.5695 110.762 15.7048C110.762 15.7048 111.691 16.1504 111.813 16.5032C111.899 16.7316 112.211 17.3722 112.421 17.803L112.515 17.9886L112.489 18.0109L112.523 18.3674L112.538 18.5048C112.103 18.7518 111.808 18.9969 111.88 19.1807C112.008 19.4953 112.096 19.8246 112.142 20.1611C112.142 20.1611 115.334 24.1569 115.746 25.8633C115.746 25.8633 124.306 30.9472 127.12 31.3093L126.622 33.8438C126.55 34.5315 126.513 35.2225 126.511 35.9141C126.548 36.4581 126.173 38.9277 126.173 38.9277C126.173 38.9277 125.684 42.5596 125.272 43.0683C124.859 43.5771 124.934 45.7551 124.934 45.7551C124.836 46.7978 124.65 47.8302 124.376 48.8411C123.964 50.2207 124.263 51.9289 124.263 51.9289C124.263 51.9289 122.838 55.1969 126.253 52.9817C126.253 52.9817 127.925 52.8777 129.861 52.8109C129.861 52.874 129.861 52.939 129.861 52.9966C129.861 53.2454 129.861 53.5146 129.848 53.7969C129.822 55.6685 129.811 58.2532 129.896 60.1991C130.046 63.649 131.098 70.4764 131.098 70.4764V73.9133C131.03 74.2357 130.997 74.5643 130.998 74.8937C130.975 76.103 131.298 77.2937 131.927 78.3269L132.19 80.6145C132.19 80.6145 132.807 82.1222 132.818 83.0283C132.816 83.1014 132.807 83.174 132.792 83.2456C132.768 83.3609 132.758 83.4788 132.763 83.5965C132.727 84.6363 133.354 87.1244 133.354 87.1244C133.354 87.1244 133.391 89.6292 133.766 89.7759C134.087 89.9003 133.337 91.2186 133.114 91.5974C133.108 91.5742 133.104 91.5506 133.101 91.5268L133.054 91.6011C132.977 91.8039 132.937 92.0191 132.937 92.2361C132.916 92.4072 132.944 92.5807 133.018 92.7365C133.091 92.8923 133.208 93.024 133.354 93.1163C134.067 93.5526 134.45 93.9147 133.844 94.0595C133.621 94.0941 133.4 94.1406 133.183 94.1988C133.183 94.1709 133.16 94.1412 133.151 94.1152C133.066 94.1486 132.994 94.2104 132.949 94.2903C132.904 94.3701 132.888 94.4631 132.904 94.5534C132.91 94.848 132.985 95.1369 133.125 95.3964C133.725 96.7407 134.141 97.2532 134.141 97.2532L134.429 97.2216C134.387 97.3316 134.331 97.4358 134.262 97.5317C134.152 97.6874 134.007 97.8148 133.838 97.9031C133.681 97.9972 133.506 98.0573 133.324 98.0795C133.12 98.0861 132.921 98.1355 132.737 98.2244C132.554 98.3133 132.392 98.4398 132.261 98.5957C131.889 99.0803 131.652 99.7394 132.391 100.319L135.076 101.247C135.076 101.247 139.694 101.847 139.449 100.811C139.204 99.7747 139.055 98.8686 139.055 98.8686C139.075 98.236 138.948 97.6074 138.684 97.0322C138.635 96.9384 138.581 96.8478 138.52 96.7611L138.684 96.7444C138.684 96.7444 139.022 94.455 139.472 94.0205C139.576 93.9203 139.6 93.8348 139.576 93.7829C139.622 93.6584 139.503 93.586 139.353 93.5433L139.319 93.6343C139.172 93.6023 139.022 93.5855 138.871 93.5842C138.871 93.5842 138.721 92.3866 139.21 91.9502C139.249 91.9005 139.278 91.8431 139.294 91.7818C139.31 91.7205 139.314 91.6564 139.304 91.5937C139.308 91.4294 139.291 91.2652 139.252 91.1054C139.247 91.1157 139.242 91.1256 139.236 91.1351C138.99 90.047 138.158 88.3183 138.158 88.3183C138.158 88.3183 138.121 87.2302 138.422 86.7939C138.723 86.3575 138.383 80.8744 138.383 80.8744C138.383 80.8744 138.496 78.2248 138.158 76.99C137.82 75.7553 138.57 74.3014 138.57 74.3014C138.57 74.3014 138.57 74.2735 138.57 74.2234V74.2048L138.528 73.7871C138.527 73.7957 138.527 73.8044 138.528 73.8131C138.452 73.1112 138.308 71.8393 138.203 71.2526C138.052 70.417 138.242 66.4249 138.242 66.4249L138.916 64.7166L140.118 67.6597L141.394 71.5812C141.394 71.5812 142.026 72.4093 142.041 73.2523C142.041 73.2932 142.041 73.334 142.041 73.3749C142.031 73.4618 142.026 73.5492 142.026 73.6367C142.003 74.1321 142.14 74.6219 142.414 75.0348C142.414 75.0348 142.753 76.8916 143.278 77.3577C143.804 77.8237 143.804 78.7373 143.804 78.7373C143.804 78.7373 144.441 81.4259 144.733 81.8938C144.986 82.2912 144.999 83.3792 144.997 83.719C144.997 83.7803 144.997 83.8156 144.997 83.8156C144.997 83.8156 145.086 84.7774 145.082 85.5833C145.082 85.6835 145.082 85.7801 145.082 85.8711C145.083 85.8643 145.083 85.8574 145.082 85.8506C145.082 86.0708 145.056 86.2902 145.004 86.5042L144.993 86.5414C144.993 86.4949 144.993 86.4504 145.006 86.4058C144.876 86.9531 144.813 87.5144 144.82 88.0769C144.804 89.0425 144.95 90.1863 145.536 90.8621C146.55 92.0245 147.187 91.8796 147.187 91.8796C147.187 91.8796 146.701 93.3317 146.099 93.6232C146.076 93.6339 146.055 93.6476 146.035 93.664C146.035 93.6343 146.024 93.6065 146.021 93.5786C145.953 93.651 145.902 93.7367 145.87 93.8301C145.838 93.9234 145.826 94.0225 145.835 94.1208C145.792 94.7595 146.195 95.7919 146.578 96.2728C146.72 96.4119 146.894 96.5139 147.085 96.5699C147.055 96.5912 147.023 96.6105 146.99 96.6275C146.924 96.6641 146.855 96.697 146.784 96.7259C146.686 96.7673 146.583 96.7943 146.478 96.8057C146.274 96.8111 146.074 96.86 145.89 96.949C145.707 97.0381 145.545 97.1652 145.415 97.3219C145.043 97.8047 144.806 98.4638 145.545 99.0432L148.23 99.9715C148.23 99.9715 152.819 100.56 152.577 99.5259Z" fill="url(#paint0_linear)"/>
<path d="M134.944 101.242L132.343 100.313C131.626 99.734 131.854 99.0748 132.216 98.5902C132.341 98.4357 132.497 98.3096 132.675 98.2206C132.853 98.1315 133.047 98.0815 133.246 98.074C133.422 98.0516 133.591 97.9914 133.742 97.8976C133.907 97.8081 134.048 97.6808 134.154 97.5263C134.344 97.2253 134.446 96.8775 134.45 96.5217C134.45 96.5217 137.303 95.6862 138.084 96.5217C138.223 96.673 138.339 96.8438 138.429 97.0286C138.688 97.6054 138.815 98.2329 138.801 98.865C138.801 98.865 138.946 99.7711 139.182 100.807C139.418 101.843 134.944 101.242 134.944 101.242Z" fill="#2D293D"/>
<path d="M147.659 99.9603L145.058 99.0319C144.341 98.4525 144.57 97.7934 144.932 97.3106C145.056 97.1555 145.211 97.029 145.389 96.9399C145.566 96.8507 145.761 96.8011 145.959 96.7944C146.062 96.7839 146.162 96.7569 146.256 96.7146C146.325 96.6856 146.392 96.6528 146.457 96.6162C147.184 96.217 147.165 95.2366 147.165 95.2366C147.165 95.2366 150.017 94.401 150.799 95.2366C150.904 95.3498 150.995 95.4743 151.072 95.6079C151.561 96.4528 151.507 97.5799 151.507 97.5799C151.507 97.5799 151.652 98.4878 151.878 99.522C152.105 100.556 147.659 99.9603 147.659 99.9603Z" fill="#2D293D"/>
<path opacity="0.1" d="M138.086 96.5198C138.225 96.671 138.341 96.8418 138.431 97.0267L134.158 97.5225C134.348 97.2215 134.45 96.8737 134.453 96.5179C134.453 96.5179 137.305 95.6842 138.086 96.5198Z" fill="black"/>
<path opacity="0.1" d="M151.076 95.6119V96.4121C150.411 97.5058 147.195 97.2663 146.26 96.7185C146.329 96.6895 146.396 96.6567 146.461 96.6201C147.187 96.2209 147.169 95.2405 147.169 95.2405C147.169 95.2405 150.021 94.4049 150.803 95.2405C150.907 95.3537 150.999 95.4782 151.076 95.6119Z" fill="black"/>
<path d="M151.583 92.1618C151.384 92.5105 151.215 92.875 151.076 93.2517V96.1205C150.348 97.3181 146.57 96.9189 146.06 96.2653C145.549 95.6117 145.015 93.9109 145.59 93.6156C146.164 93.3204 146.643 91.8721 146.643 91.8721C146.643 91.8721 146.024 92.0169 145.043 90.8546C144.062 89.6922 144.354 87.115 144.536 86.4986C144.718 85.8821 144.536 83.8118 144.536 83.8118C144.536 83.8118 144.573 82.3579 144.283 81.8863C143.994 81.4147 143.375 78.7297 143.375 78.7297C143.375 78.7297 143.375 77.8218 142.866 77.3502C142.357 76.8785 142.03 75.0254 142.03 75.0254C141.732 74.5624 141.604 74.0106 141.668 73.4639C141.775 72.5559 141.049 71.5755 141.049 71.5755L139.813 67.6521L138.65 64.711L137.996 66.4174C137.996 66.4174 137.811 70.4113 137.961 71.245C138.112 72.0787 138.333 74.2957 138.333 74.2957C138.333 74.2957 137.606 75.7477 137.933 76.9825C138.26 78.2173 138.141 80.8706 138.141 80.8706C138.141 80.8706 138.468 86.3519 138.177 86.7882C137.885 87.2246 137.922 88.3145 137.922 88.3145C137.922 88.3145 139.408 91.5082 138.94 91.9445C138.472 92.3809 138.613 93.5785 138.613 93.5785C138.613 93.5785 139.629 93.5785 139.195 94.0149C138.76 94.4512 138.431 96.7388 138.431 96.7388L134.037 97.2531C134.037 97.2531 133.636 96.7462 133.054 95.3963C132.473 94.0464 133.162 94.1987 133.747 94.052C134.333 93.9053 133.963 93.5451 133.272 93.1087C132.581 92.6724 132.982 91.692 132.982 91.692C132.982 91.692 134.035 89.9132 133.671 89.7684C133.307 89.6235 133.272 87.1169 133.272 87.1169C133.272 87.1169 132.545 84.146 132.727 83.3402C132.909 82.5343 132.146 80.6181 132.146 80.6181L131.891 78.3305C131.114 77.0324 130.83 75.4979 131.092 74.0079V70.48C131.092 70.48 130.074 63.6545 129.929 60.2045C129.837 57.995 129.863 54.9795 129.892 53.0986C129.911 52.0439 129.929 51.3439 129.929 51.3439L145.625 49.71C145.625 49.71 145.61 50.4341 145.909 52.0402C146.071 52.9018 146.322 54.0177 146.715 55.4122C147.841 59.4061 147.152 62.3826 147.152 62.3826L147.005 67.4312C147.005 67.4312 148.386 70.8068 148.096 71.9692C147.921 72.6593 147.822 73.3667 147.802 74.0785C147.802 74.0785 150.89 81.4499 150.563 83.5927C150.236 85.7354 151.579 89.1129 151.579 89.1129C151.579 89.1129 151.947 91.5082 151.583 92.1618Z" fill="#464353"/>
<path opacity="0.05" d="M142.609 73.2448L147.388 72.6079C147.388 72.6079 144.681 75.3689 142.609 73.2448Z" fill="black"/>
<path opacity="0.1" d="M146.697 67.9419C146.697 67.9419 146.86 69.6316 145.825 70.2666C145.825 70.2666 147.678 69.9769 146.697 67.9419Z" fill="black"/>
<path opacity="0.1" d="M146.403 62.5684C146.403 62.5684 142.409 65.8549 140.956 65.5819C139.503 65.309 146.403 62.5684 146.403 62.5684Z" fill="black"/>
<path opacity="0.1" d="M136.687 74.7861C136.687 74.7861 133.653 75.475 133.562 76.6931C133.47 77.9111 136.687 74.7861 136.687 74.7861Z" fill="black"/>
<path opacity="0.05" d="M137.354 89.9302C137.354 89.9302 133.067 90.7286 134.284 91.2726C135.501 91.8167 137.5 92.253 137.5 92.253C137.5 92.253 138.884 92.3254 137.354 89.9302Z" fill="black"/>
<g opacity="0.05">
<path opacity="0.05" d="M133.418 92.1378C133.311 92.0705 133.219 91.9798 133.152 91.8724C133.084 91.765 133.041 91.6438 133.026 91.5176L132.982 91.5937C132.982 91.5937 132.582 92.5741 133.274 93.0086C133.352 93.0587 133.428 93.1089 133.497 93.1571C133.625 93.133 133.762 93.1144 133.894 93.081C134.479 92.9362 134.11 92.5741 133.418 92.1378Z" fill="black"/>
<path opacity="0.05" d="M138.94 91.8457C139.059 91.738 139.055 91.4595 138.983 91.103C138.797 91.3834 138.743 91.8216 138.74 92.154C138.785 92.0386 138.853 91.9337 138.94 91.8457Z" fill="black"/>
<path opacity="0.05" d="M138.281 73.7812C138.123 74.2107 138.025 74.66 137.991 75.1163C138.074 74.8011 138.185 74.4941 138.323 74.199L138.281 73.7812Z" fill="black"/>
<path opacity="0.05" d="M148.097 71.8759C148.126 71.7454 148.139 71.612 148.136 71.4785C148.082 71.7496 148.045 72.0003 148.018 72.2212C148.042 72.108 148.068 72.0003 148.097 71.8759Z" fill="black"/>
<path opacity="0.05" d="M138.178 86.6915C138.238 86.6024 138.271 86.3016 138.286 85.8838C138.152 86.2071 138.08 86.5531 138.076 86.9032C138.102 86.8287 138.136 86.7577 138.178 86.6915Z" fill="black"/>
<path opacity="0.05" d="M139.07 93.5391C138.845 94.2674 138.678 95.0125 138.57 95.7672L134.177 96.2741C134.177 96.2741 133.775 95.7672 133.194 94.4173C133.147 94.313 133.105 94.2065 133.069 94.098C132.805 94.2186 132.698 94.4916 133.047 95.2882C133.628 96.6325 134.032 97.1449 134.032 97.1449L138.426 96.6362C138.426 96.6362 138.752 94.3486 139.187 93.9123C139.41 93.7025 139.273 93.5929 139.07 93.5391Z" fill="black"/>
<path opacity="0.05" d="M133.274 87.0183C133.274 87.0183 133.309 89.5231 133.673 89.6679C133.859 89.2538 133.98 88.8602 133.816 88.7952C133.445 88.6504 133.417 86.1437 133.417 86.1437C133.417 86.1437 132.69 83.1729 132.872 82.367C133.054 81.5612 132.291 79.6449 132.291 79.6449L132.036 77.3574C131.259 76.0593 130.975 74.5248 131.237 73.0348V69.5069C131.237 69.5069 130.219 62.6813 130.074 59.2314C129.981 57.0218 130.007 54.0064 130.037 52.1254C130.037 51.7856 130.048 51.4848 130.054 51.2305L129.929 51.2435C129.929 51.2435 129.909 51.9416 129.892 52.9981C129.863 54.8791 129.835 57.8945 129.929 60.1022C130.074 63.5521 131.091 70.3796 131.091 70.3796V73.9075C130.83 75.3971 131.114 76.9307 131.891 78.2282L132.144 80.5158C132.144 80.5158 132.908 82.4394 132.726 83.2397C132.543 84.04 133.274 87.0183 133.274 87.0183Z" fill="black"/>
<path opacity="0.05" d="M146.208 95.2958C145.851 94.7793 145.613 94.1902 145.511 93.5708C145.064 93.9756 145.578 95.5464 146.069 96.1703C146.576 96.8239 150.355 97.2231 151.085 96.0236V95.3329C150.095 96.304 146.688 95.9141 146.208 95.2958Z" fill="black"/>
<path opacity="0.05" d="M151.73 91.1926C151.531 91.5414 151.36 91.9059 151.221 92.2825V92.7969C151.304 92.6112 151.421 92.3624 151.592 92.069C151.707 91.7831 151.762 91.4765 151.752 91.1685C151.752 91.1685 151.735 91.1852 151.73 91.1926Z" fill="black"/>
<path opacity="0.05" d="M146.431 91.766C146.569 91.4863 146.689 91.1979 146.79 90.9026C146.79 90.9026 146.171 91.0475 145.19 89.8851C144.477 89.0403 144.436 87.4434 144.538 86.3999C144.352 87.0182 144.064 89.5955 145.045 90.7578C145.686 91.5172 146.171 91.7178 146.431 91.766Z" fill="black"/>
<path opacity="0.05" d="M144.536 83.7133C144.6 84.4287 144.624 85.1471 144.609 85.8653C144.627 85.7519 144.652 85.6397 144.683 85.5292C144.869 84.9109 144.683 82.8424 144.683 82.8424C144.683 82.8424 144.72 81.3886 144.428 80.9169C144.137 80.4453 143.529 77.7567 143.529 77.7567C143.529 77.7567 143.529 76.8487 143.02 76.3771C142.511 75.9054 142.184 74.0524 142.184 74.0524C141.884 73.5902 141.752 73.0386 141.812 72.4908C141.922 71.5828 141.196 70.6024 141.196 70.6024L139.96 66.6809L138.797 63.7397L138.141 65.448C138.141 65.448 138.141 65.6634 138.119 66.005L138.65 64.618L139.813 67.5536L141.049 71.4751C141.049 71.4751 141.775 72.4555 141.666 73.3635C141.606 73.9113 141.737 74.4629 142.037 74.9251C142.037 74.9251 142.364 76.7819 142.873 77.2498C143.382 77.7177 143.38 78.6294 143.38 78.6294C143.38 78.6294 143.999 81.3161 144.289 81.7859C144.579 82.2557 144.536 83.7133 144.536 83.7133Z" fill="black"/>
</g>
<path d="M147.587 16.9062L147.314 18.2319L147.33 18.8224L147.342 19.2569L145.825 19.4128L145.656 19.099C145.342 18.5308 144.69 17.3759 144.48 17.1977C144.2 16.9637 143.7 13.2761 144.295 13.4952C144.661 13.6365 144.961 13.9084 145.138 14.2584C145.138 14.2584 148.124 14.6 147.587 16.9062Z" fill="#FFCDD3"/>
<path opacity="0.1" d="M147.341 19.2568L145.825 19.4128L145.656 19.099C145.86 18.867 146.138 18.7128 146.443 18.6627C146.748 18.6126 147.061 18.6697 147.328 18.8242L147.341 19.2568Z" fill="black"/>
<path d="M147.724 19.9756L145.725 20.4379L145.682 20.1408L145.569 19.3405C145.569 19.3405 146.361 18.2859 147.505 19.0769L147.605 19.4835L147.724 19.9756Z" fill="#6C63FF"/>
<path d="M115.341 17.051L113.207 18.1947L113.021 17.7937C112.818 17.3685 112.515 16.7279 112.432 16.4939C112.306 16.1411 111.416 15.6955 111.416 15.6955C109.186 13.5621 111.843 11.7275 111.843 11.7275C113.251 8.89594 114.816 12.6894 114.816 12.6894C114.816 12.6894 115.035 14.6891 114.881 14.8228C114.726 14.9565 114.726 15.5043 114.726 15.5043C114.93 15.8967 115.102 16.3046 115.241 16.7242C115.306 16.9266 115.341 17.051 115.341 17.051Z" fill="#FFCDD3"/>
<path opacity="0.1" d="M115.341 17.051L113.207 18.1948L113.021 17.7937C113.322 17.5412 114.39 16.6796 114.741 16.7149C114.909 16.7358 115.078 16.7402 115.247 16.7279C115.306 16.9266 115.341 17.051 115.341 17.051Z" fill="black"/>
<path d="M115.559 17.6954L113.16 18.8763L113.112 18.362L113.078 18.0055C113.078 18.0055 114.468 16.8153 114.879 16.8617C115.086 16.8917 115.297 16.8917 115.505 16.8617L115.533 17.2925L115.559 17.6954Z" fill="#6C63FF"/>
<path d="M141.773 25.7126C141.773 25.7126 131.317 26.8917 133.272 26.2567C134.632 25.8129 135.172 24.9569 135.286 23.9914C135.379 23.1874 135.17 22.3203 134.897 21.5776C134.652 20.9187 134.34 20.2861 133.968 19.6892C133.968 19.6892 141.957 15.296 140.361 19.29C140.115 19.8941 139.962 20.5321 139.908 21.1821C139.86 21.828 139.93 22.4773 140.114 23.0983C140.416 24.1059 140.99 25.0106 141.773 25.7126Z" fill="#FFCDD3"/>
<path opacity="0.1" d="M140.356 19.2846C140.11 19.8887 139.957 20.5267 139.903 21.1767C139.15 21.8099 138.325 21.7671 137.264 21.7671C136.451 21.7671 135.548 21.964 134.897 21.5722C134.652 20.9133 134.34 20.2807 133.968 19.6838C133.968 19.6838 141.955 15.2907 140.356 19.2846Z" fill="black"/>
<path d="M137.123 22.0458C139.511 22.0458 141.446 20.1113 141.446 17.725C141.446 15.3388 139.511 13.4043 137.123 13.4043C134.735 13.4043 132.8 15.3388 132.8 17.725C132.8 20.1113 134.735 22.0458 137.123 22.0458Z" fill="#FFCDD3"/>
<path opacity="0.1" d="M141.773 25.7129C141.773 25.7129 131.317 26.892 133.272 26.2569C134.632 25.8132 135.172 24.9572 135.286 23.9917C135.806 23.4346 136.852 23.0206 137.515 22.8052C138.128 22.5991 138.79 22.5881 139.41 22.7736C139.654 22.847 139.886 22.9545 140.099 23.093C140.404 24.1043 140.984 25.0113 141.773 25.7129Z" fill="black"/>
<path opacity="0.1" d="M147.724 19.9752L145.725 20.4375L145.682 20.1404C145.896 19.8466 146.196 19.6258 146.54 19.5082C146.884 19.3906 147.256 19.3818 147.605 19.4831L147.724 19.9752Z" fill="black"/>
<path opacity="0.1" d="M115.559 17.6953L113.16 18.8762L113.112 18.3619C113.889 17.9444 114.696 17.5863 115.527 17.2905L115.559 17.6953Z" fill="black"/>
<path opacity="0.1" d="M145.909 52.0436C141.857 52.6898 136.098 53.5142 135.183 53.2357C134.424 53.0055 132.001 53.0296 129.892 53.102C129.911 52.0474 129.929 51.3474 129.929 51.3474L145.625 49.7134C145.625 49.7134 145.61 50.4375 145.909 52.0436Z" fill="black"/>
<path d="M149.948 51.0935C149.948 51.0935 136.614 53.3811 135.184 52.9503C133.753 52.5195 126.405 52.9856 126.405 52.9856C123.098 55.2007 124.478 51.9328 124.478 51.9328C124.478 51.9328 124.189 50.2264 124.588 48.8468C124.856 47.8339 125.04 46.8004 125.136 45.7571C125.136 45.7571 125.064 43.5772 125.463 43.0685C125.863 42.5597 126.336 38.9297 126.336 38.9297C126.336 38.9297 126.699 36.4601 126.663 35.9161C126.628 35.3721 126.771 33.8458 126.771 33.8458L127.245 31.3038C124.519 30.9418 116.235 25.8579 116.235 25.8579C115.836 24.1515 112.748 20.1575 112.748 20.1575C112.703 19.8216 112.617 19.4925 112.493 19.1771C112.276 18.5959 115.546 17.4336 115.546 17.4336C115.546 17.4336 117.979 20.4045 118.489 21.2103C118.998 22.0162 120.74 23.4979 120.74 23.4979C121.011 23.47 121.285 23.5056 121.539 23.6019L121.582 23.6149C122.166 23.844 122.714 24.1567 123.208 24.5432C124.027 24.5238 124.822 24.8234 125.424 25.3788C125.424 25.3788 126.91 25.1597 127.169 25.4141C127.427 25.6685 128.694 25.4141 128.694 25.4141C128.694 25.4141 129.965 22.7273 130.801 23.5072C131.637 24.287 135.184 24.2499 135.184 24.2499C135.655 23.6223 136.805 23.1729 137.524 22.9501C138.138 22.7449 138.8 22.7339 139.42 22.9186C139.687 22.9983 139.938 23.124 140.163 23.2899L142.32 25.3955C142.32 25.3955 142.936 24.5952 142.864 24.4151C142.792 24.235 143.59 24.0883 143.59 24.0883C143.59 24.0883 144.644 23.7615 145.043 23.652C145.443 23.5424 145.809 23.9751 145.842 24.0141C145.829 23.9676 145.556 23.0857 145.656 22.4172C145.757 21.7488 145.22 21.1175 145.22 21.1175C146.491 17.9943 149.361 20.6087 149.361 20.6087C149.361 20.6087 149.688 22.3151 149.398 22.9687C149.108 23.6223 149.688 25.0019 149.616 25.3658C149.543 25.7297 149.762 26.3462 149.762 27.0369C149.762 27.7276 149.391 29.033 149.181 29.6141C148.971 30.1953 147.219 31.5025 147.219 31.5025C147.219 31.5025 147.109 33.5728 146.346 34.7705C145.582 35.9681 146.061 40.0642 146.061 40.0642C146.061 40.0642 146.788 43.2597 147.696 44.2772C148.605 45.2948 149.948 51.0935 149.948 51.0935Z" fill="#3F3D56"/>
<path opacity="0.1" d="M130.511 27.1998C130.511 27.1998 130.111 26.0022 129.747 25.9001C129.386 25.7672 129.034 25.6096 128.694 25.4284L128.928 24.981C128.928 24.981 130.292 25.3523 130.511 25.7552C130.73 26.1582 130.511 27.1998 130.511 27.1998Z" fill="black"/>
<path opacity="0.1" d="M123.208 24.5504C123.135 24.9217 119.901 25.2393 119.901 25.2393L121.535 23.6016L121.576 23.6164C122.163 23.8468 122.712 24.1614 123.208 24.5504Z" fill="black"/>
<path d="M113.851 19.8567C114.011 19.8567 114.141 19.727 114.141 19.567C114.141 19.407 114.011 19.2773 113.851 19.2773C113.691 19.2773 113.561 19.407 113.561 19.567C113.561 19.727 113.691 19.8567 113.851 19.8567Z" fill="#575988"/>
<path d="M114.223 20.4377C114.383 20.4377 114.513 20.308 114.513 20.1481C114.513 19.9881 114.383 19.8584 114.223 19.8584C114.063 19.8584 113.933 19.9881 113.933 20.1481C113.933 20.308 114.063 20.4377 114.223 20.4377Z" fill="#575988"/>
<path d="M114.587 20.9743C114.747 20.9743 114.877 20.8447 114.877 20.6847C114.877 20.5247 114.747 20.395 114.587 20.395C114.427 20.395 114.297 20.5247 114.297 20.6847C114.297 20.8447 114.427 20.9743 114.587 20.9743Z" fill="#575988"/>
<path d="M114.968 21.5534C115.128 21.5534 115.258 21.4238 115.258 21.2638C115.258 21.1038 115.128 20.9741 114.968 20.9741C114.808 20.9741 114.678 21.1038 114.678 21.2638C114.678 21.4238 114.808 21.5534 114.968 21.5534Z" fill="#575988"/>
<path d="M149.216 21.4682C149.346 21.4682 149.452 21.3626 149.452 21.2324C149.452 21.1022 149.346 20.9966 149.216 20.9966C149.086 20.9966 148.98 21.1022 148.98 21.2324C148.98 21.3626 149.086 21.4682 149.216 21.4682Z" fill="#575988"/>
<path d="M149.253 22.0048C149.384 22.0048 149.489 21.8992 149.489 21.769C149.489 21.6388 149.384 21.5332 149.253 21.5332C149.123 21.5332 149.017 21.6388 149.017 21.769C149.017 21.8992 149.123 22.0048 149.253 22.0048Z" fill="#575988"/>
<path d="M149.285 22.5395C149.415 22.5395 149.521 22.4339 149.521 22.3037C149.521 22.1734 149.415 22.0679 149.285 22.0679C149.155 22.0679 149.049 22.1734 149.049 22.3037C149.049 22.4339 149.155 22.5395 149.285 22.5395Z" fill="#575988"/>
<path opacity="0.1" d="M130.524 37.0411C130.489 36.9984 138.68 47.3352 145.038 41.3619C145.043 41.3638 134.998 42.7248 130.524 37.0411Z" fill="black"/>
<path opacity="0.1" d="M125.823 42.4146C125.823 42.4146 130.725 42.5482 131.237 43.9575V45.4244C131.098 45.5018 130.941 45.5424 130.781 45.5424C130.622 45.5424 130.465 45.5018 130.325 45.4244C129.831 45.157 126.868 43.653 125.823 44.3772V42.4146Z" fill="black"/>
<path d="M125.914 42.4146C125.914 42.4146 130.602 42.5427 131.092 43.887V45.2833C130.959 45.3574 130.809 45.3963 130.656 45.3963C130.503 45.3963 130.353 45.3574 130.219 45.2833C129.747 45.0308 126.914 43.5955 125.914 44.2862V42.4146Z" fill="#3F3D56"/>
<path opacity="0.1" d="M128.499 31.7788C129 32.9372 129.638 34.0312 130.399 35.0375C131.228 36.1497 132.232 37.1199 133.372 37.9099C133.372 37.9099 128.581 32.451 128.499 31.7788Z" fill="black"/>
<path opacity="0.1" d="M126.895 26.0879C126.895 26.0879 127.713 29.6158 129.82 30.8134L126.895 26.0879Z" fill="black"/>
<path opacity="0.1" d="M125.641 26.4445C125.621 26.3795 124.915 29.2296 128.358 30.8135C128.358 30.8135 126.895 30.3177 125.641 26.4445Z" fill="black"/>
<path opacity="0.1" d="M147.042 24.079C146.989 24.079 148.741 25.1931 149.218 25.713C149.218 25.713 148.077 24.0047 147.042 24.079Z" fill="black"/>
<path d="M135.955 21.6406C135.955 21.7348 135.975 21.8279 136.014 21.914C136.052 22.0001 136.108 22.0772 136.178 22.1405C136.248 22.2039 136.33 22.2521 136.42 22.282C136.509 22.312 136.604 22.3231 136.698 22.3146C138.015 22.3963 139.388 22.4539 140.599 21.9432C140.826 21.8622 141.031 21.7271 141.194 21.5496C141.409 21.2841 141.452 20.9239 141.539 20.5934C141.71 19.9472 142.074 19.3734 142.336 18.7588C142.78 17.7205 142.928 16.5802 142.766 15.463C142.731 15.1206 142.618 14.7908 142.435 14.4994C142.086 13.9999 141.448 13.7975 140.986 13.4001C140.523 13.0028 140.226 12.3956 139.685 12.1004C139.198 11.8293 138.602 11.8627 138.054 11.9556C136.976 12.1385 135.943 12.5261 135.011 13.0975C134.697 13.2832 134.353 13.5116 133.993 13.4429C133.677 13.3834 133.446 13.1179 133.249 12.8691C132.996 13.4633 132.89 14.1097 132.939 14.7537C132.953 14.8482 132.95 14.9444 132.93 15.0378C132.885 15.1508 132.815 15.2527 132.727 15.3368C132.402 15.7081 132.2 16.3116 132.521 16.6941C132.661 16.8593 132.876 16.9503 133.012 17.1193C133.255 17.422 133.173 17.862 133.168 18.2482C133.154 18.3831 133.189 18.5184 133.264 18.6307C133.335 18.6962 133.421 18.7424 133.514 18.7649C133.608 18.7873 133.705 18.7852 133.798 18.7588C133.982 18.7034 134.175 18.6851 134.366 18.705C134.568 18.7705 134.741 18.9011 134.86 19.0764C135.46 19.8581 135.698 20.7085 135.955 21.6406Z" fill="#2D293D"/>
<g opacity="0.1">
<path opacity="0.1" d="M141.348 21.2212C141.185 21.3987 140.981 21.5338 140.753 21.6148C139.535 22.1217 138.164 22.0642 136.852 21.9862C136.711 21.9876 136.572 21.9564 136.445 21.8952C136.244 21.7782 136.168 21.5331 136.107 21.3103C135.851 20.3819 135.615 19.5296 135.005 18.7553C134.888 18.5767 134.714 18.4427 134.511 18.3747C134.32 18.3567 134.127 18.3749 133.942 18.4286C133.85 18.4552 133.753 18.4576 133.659 18.4354C133.566 18.4133 133.48 18.3675 133.409 18.3023C133.333 18.1899 133.299 18.0547 133.313 17.9198C133.313 17.5299 133.4 17.0935 133.157 16.7909C133.021 16.6219 132.805 16.5309 132.666 16.3638C132.575 16.2406 132.519 16.0951 132.505 15.9427C132.49 15.7903 132.517 15.6368 132.582 15.4985C132.35 15.8699 132.252 16.3359 132.521 16.6553C132.661 16.8206 132.876 16.9116 133.012 17.0805C133.255 17.385 133.173 17.8232 133.168 18.2095C133.153 18.3441 133.187 18.4795 133.262 18.592C133.333 18.6577 133.419 18.7041 133.513 18.7266C133.607 18.7491 133.705 18.7468 133.798 18.7201C133.982 18.6647 134.175 18.6464 134.366 18.6662C134.568 18.7317 134.741 18.8623 134.86 19.0376C135.468 19.8119 135.706 20.6623 135.962 21.5944C135.992 21.8238 136.107 22.0337 136.283 22.183C136.411 22.2443 136.551 22.2749 136.692 22.2721C138.009 22.3538 139.382 22.4132 140.594 21.9008C140.821 21.8202 141.025 21.6851 141.188 21.5071C141.27 21.4025 141.333 21.2844 141.374 21.158C141.376 21.1822 141.363 21.2026 141.348 21.2212Z" fill="black"/>
<path opacity="0.1" d="M132.939 14.925C132.998 14.8617 133.042 14.7871 133.071 14.7059C133.088 14.612 133.088 14.5158 133.071 14.4218C133.035 13.8925 133.104 13.3611 133.274 12.8584L133.249 12.8306C132.995 13.4239 132.889 14.0699 132.939 14.7134C132.945 14.7838 132.945 14.8546 132.939 14.925Z" fill="black"/>
</g>
<path opacity="0.1" d="M135.184 24.2592C135.184 24.2592 140.584 24.976 141.069 24.1646L135.184 24.2592Z" fill="black"/>
<path opacity="0.1" d="M145.682 22.0254C145.682 22.0254 148.685 22.0254 149.344 23.1543L145.682 22.0254Z" fill="black"/>
<path d="M162.48 122.32C161.589 123.116 160.432 123.548 159.238 123.531C158.933 123.531 158.511 123.588 158.509 123.893C158.517 123.982 158.547 124.068 158.598 124.142C158.975 124.77 159.571 125.237 160.271 125.454C160.921 125.651 161.616 125.618 162.294 125.582L164.272 125.48C164.644 125.46 165.016 125.441 165.387 125.395C165.759 125.348 166.164 125.272 166.552 125.209C167.506 125.074 168.471 125.029 169.434 125.075C169.69 125.085 169.991 125.075 170.143 124.89C170.296 124.704 170.218 124.349 170.16 124.071C170.041 123.497 170.16 122.896 170.05 122.32C169.865 121.31 168.99 120.536 168.031 120.17C167.139 119.832 165.56 119.444 164.716 120.008C163.827 120.601 163.282 121.59 162.48 122.32Z" fill="#3F3D56"/>
<path d="M164.445 88.478C164.62 89.308 165.424 89.943 165.447 90.7897C165.467 91.4693 164.982 92.0393 164.633 92.6205C164.304 93.2224 164.026 93.851 163.802 94.4996C163.145 96.1883 162.329 97.8109 161.365 99.3458C160.9 100.089 160.38 100.881 160.486 101.745C160.56 102.149 160.703 102.537 160.908 102.892L162.301 105.659C162.606 106.211 162.845 106.798 163.013 107.406C163.134 107.932 163.145 108.476 163.215 109.01C163.435 110.708 164.232 112.416 163.76 114.061C163.719 114.202 163.574 114.373 163.461 114.274C163.921 115.134 164.291 115.999 164.256 116.974C164.237 117.485 164.081 118.018 164.269 118.493C164.349 118.692 164.488 118.877 164.486 119.091C164.486 119.232 164.421 119.364 164.406 119.501C164.367 119.893 164.728 120.22 165.101 120.344C165.474 120.469 165.881 120.459 166.259 120.573C166.983 120.79 167.501 121.414 168.116 121.846C168.747 122.281 169.491 122.523 170.257 122.543C170.366 122.554 170.476 122.532 170.573 122.48C170.627 122.432 170.671 122.373 170.701 122.307C170.731 122.241 170.747 122.17 170.747 122.097C170.781 121.75 170.729 121.401 170.595 121.079C170.462 120.757 170.251 120.473 169.982 120.251C169.864 120.178 169.766 120.075 169.697 119.954C169.663 119.847 169.654 119.733 169.671 119.622C169.784 118.1 169.756 116.571 169.59 115.054C169.515 114.574 169.49 114.086 169.517 113.6C169.556 113.196 169.679 112.795 169.634 112.392C169.59 111.989 169.383 111.621 169.263 111.233C169.047 110.542 169.107 109.8 169.077 109.077C169.04 107.822 168.752 106.589 168.466 105.364C168.352 104.883 168.228 104.38 167.888 104.023C167.598 103.72 167.13 103.431 167.239 103.028C167.3 102.879 167.391 102.745 167.505 102.632C167.64 102.464 167.738 102.269 167.795 102.061C167.852 101.853 167.866 101.635 167.836 101.422C167.958 101.453 168.087 101.441 168.202 101.387C168.316 101.334 168.408 101.242 168.462 101.128C170.725 100.061 172.549 97.9254 173.363 95.558C173.411 95.3821 173.485 95.2144 173.582 95.0603C173.792 94.767 174.156 94.6407 174.48 94.4792C175.494 93.9685 176.195 93.0123 176.837 92.0765C177.209 91.5343 177.58 90.9735 177.748 90.3348C177.836 89.9217 177.877 89.5001 177.872 89.0777L177.93 86.896C177.942 86.7524 177.929 86.6076 177.889 86.469C177.834 86.3394 177.754 86.222 177.653 86.1236C177.035 85.4705 176.223 85.0331 175.338 84.8758C174.743 84.77 174.136 84.7904 173.534 84.7403C172.367 84.6437 171.215 84.2817 170.049 84.3689C168.215 84.5045 166.582 85.7745 165.718 87.3974C165.415 87.9692 165.095 88.4669 164.445 88.478Z" fill="#464353"/>
<path d="M154.264 74.2917C154.289 74.6285 154.243 74.9668 154.13 75.2851C153.987 75.5896 153.629 75.8273 153.315 75.7029C153.409 75.4894 153.159 75.2461 152.924 75.2721C152.809 75.2986 152.702 75.3527 152.613 75.4297C152.523 75.5067 152.453 75.6042 152.41 75.714C152.255 76.0259 152.203 76.3789 152.261 76.7223C152.335 77.1493 152.583 77.5597 152.518 77.9886C152.466 78.3451 152.204 78.6997 152.343 79.0302C152.433 79.1813 152.547 79.3172 152.679 79.4332C152.863 79.6591 152.953 79.9469 152.93 80.2371C152.908 80.5273 152.775 80.7978 152.558 80.9929L156.074 81.0634C155.945 81.6502 156.209 82.2499 156.51 82.7717C157.353 84.2062 158.517 85.4259 159.911 86.3354C161.305 87.2448 162.89 87.8192 164.544 88.0134C164.454 88.0656 164.378 88.1369 164.319 88.2223C164.261 88.3077 164.222 88.405 164.206 88.5072C164.19 88.6094 164.196 88.7138 164.226 88.8131C164.255 88.9123 164.306 89.0039 164.375 89.0811C164.661 89.3651 165.146 89.3299 165.504 89.1461C165.863 88.9622 166.143 88.6577 166.47 88.4219C167.048 88.0131 167.752 87.8235 168.456 87.8871C168.897 87.9298 169.324 88.0728 169.766 88.0951C171.067 88.1638 172.181 87.228 173.434 86.8455C174.346 86.5651 175.381 86.5651 176.146 85.9951C176.477 85.75 176.748 85.3471 176.652 84.9497C176.572 84.7213 176.445 84.512 176.28 84.3351C175.84 83.7651 175.58 83.0799 175.264 82.4319C174.638 81.1489 173.776 79.995 172.724 79.0302C171.93 78.3363 171.088 77.6985 170.205 77.1215C169.991 76.964 169.764 76.8266 169.525 76.7111C169.216 76.5756 168.874 76.5106 168.596 76.3398C168.183 76.0798 167.945 75.6212 167.628 75.2517C166.931 74.4384 165.861 74.0652 165.003 73.4265C164.427 72.9975 163.918 72.4331 163.23 72.227C162.896 72.1248 162.541 72.1174 162.206 72.0171C161.447 71.7869 160.893 71.1129 160.148 70.8399C159.559 70.6246 158.909 70.6803 158.29 70.6041C157.593 70.5182 156.926 70.2646 156.349 69.8651C156.162 69.7136 155.954 69.592 155.73 69.5049C154.788 69.219 154.712 70.9718 154.615 71.5789C154.491 72.4814 154.264 73.3782 154.264 74.2917Z" fill="#6C63FF"/>
<path d="M155.182 80.1708C155.34 81.8827 154.047 83.5408 154.424 85.2175C154.504 85.574 154.658 85.9138 154.714 86.2759C154.872 87.2693 154.277 88.2107 153.71 89.0425L148.843 96.1819C148.647 96.4953 148.414 96.7834 148.148 97.0397C147.219 97.866 145.822 97.7824 144.599 98.0275C143.74 98.2039 142.93 98.5623 142.221 99.0785C142.189 99.1031 142.168 99.1393 142.163 99.1792C142.157 99.2191 142.167 99.2596 142.191 99.292C142.393 99.5667 142.661 99.7865 142.969 99.9315C143.278 100.076 143.618 100.142 143.958 100.122C144.086 100.289 143.958 100.538 143.782 100.659C143.522 100.844 143.161 100.887 143.109 101.331C143.092 101.485 143.123 101.641 143.198 101.776C143.395 102.076 143.7 102.287 144.049 102.367C145.734 102.883 147.555 101.977 148.817 100.746C150.078 99.5148 150.983 97.9607 152.22 96.7092C152.906 96.0148 153.684 95.4225 154.39 94.7503C155.799 93.4078 156.895 91.7794 157.95 90.1473C158.268 89.6552 158.589 89.1502 158.721 88.5802C158.853 88.0101 158.792 87.4327 158.942 86.8812C159.139 86.1589 159.669 85.5814 160.109 84.9761C160.973 83.7878 161.551 82.3339 161.435 80.8689C161.32 79.4039 160.414 77.9593 159.031 77.4617C158.603 77.2914 158.131 77.2628 157.684 77.38C157.118 77.5545 156.7 78.0224 156.313 78.4718L155.384 79.5376C155.158 79.7736 154.981 80.0518 154.862 80.3564C154.802 80.5099 154.788 80.6773 154.821 80.8387C154.854 81.0001 154.933 81.1486 155.048 81.2663" fill="#FBBEBE"/>
<path d="M157.649 73.1482C157.01 73.1853 156.306 73.2484 155.854 73.7052C155.665 73.9149 155.512 74.1546 155.401 74.4145C154.963 75.3076 154.535 76.2416 154.504 77.2368C154.478 78.0315 154.708 78.8095 154.829 79.595C154.929 80.2485 154.675 80.9151 154.626 81.5761C155.42 81.3329 156.467 81.0024 157.186 80.5921C157.677 80.3117 158.151 79.9923 158.686 79.8141C159.449 79.5597 160.729 79.9997 161.456 80.3525C161.495 79.8438 161.112 78.9562 161.153 78.4456C161.159 78.2307 161.197 78.0178 161.266 77.8143C161.375 77.599 161.504 77.3945 161.651 77.2034C161.927 76.7541 162.055 76.2288 162.014 75.7028C161.974 75.1769 161.768 74.6772 161.426 74.2752C160.781 73.5511 159.773 73.28 158.81 73.1612C158.204 73.0909 157.593 73.0698 156.984 73.098" fill="#6C63FF"/>
</g>
<defs>
<linearGradient id="paint0_linear" x1="131.208" y1="101.414" x2="131.208" y2="10.6803" gradientUnits="userSpaceOnUse">
<stop stop-color="#808080" stop-opacity="0.25"/>
<stop offset="0.54" stop-color="#808080" stop-opacity="0.12"/>
<stop offset="1" stop-color="#808080" stop-opacity="0.1"/>
</linearGradient>
<clipPath id="clip0">
<rect width="195" height="126" fill="white"/>
</clipPath>
</defs>
</svg>
